<svg width="79" height="62" viewBox="0 0 79 62" fill="none" xmlns="http://www.w3.org/2000/svg">
<path d="M28.0573 47.9914C22.6762 46.7356 18.0086 42.8905 15.9407 37.3251C12.6612 28.501 17.155 18.6857 25.9791 15.4062C31.6638 13.2916 37.761 14.4073 42.2548 17.8269" stroke="#598AEB" stroke-width="3" stroke-linecap="round" stroke-linejoin="round"/>
<path d="M30.9762 55.5286L27.2348 55.5416L24.4949 60.3415L14.415 55.7491L16.3921 50.2097C16.3921 50.2097 14.5422 48.7334 13.8857 48.077C13.2293 47.4206 11.5973 45.4227 11.5973 45.4227L5.87888 47.0028L2 36.5701L7.48492 33.934C7.48492 33.934 7.38633 31.2408 7.43562 30.4028C7.48492 29.5647 7.8793 27.035 7.8793 27.035L2.30616 24.2069L7.35779 14.2256L12.5184 16.2027C12.5184 16.2027 14.633 14.0129 15.3698 13.3435C16.1067 12.6741 17.9099 11.2886 17.9099 11.2886L16.4595 5.75434L26.555 2L29.2378 7.69249C29.2378 7.69249 32.2423 7.39152 33.0363 7.38892C33.8302 7.38633 36.1964 7.65097 36.1964 7.65097L39.3125 2.34508L48.9955 6.84925L46.9224 12.425L49.7271 15.1519" stroke="#598AEB" stroke-width="3" stroke-linecap="round" stroke-linejoin="round"/>
<path d="M73.7604 1.99989L60.5188 10.6391L34.9987 51.3338C34.9987 51.3338 38.0814 59.3978 47.7457 58.3756L72.3863 17.8075L73.758 2.00271L73.7604 1.99989Z" stroke="#4FF6D8" stroke-width="3" stroke-linecap="round" stroke-linejoin="round"/>
<path d="M51.8633 51.597L39.5781 44.0303" stroke="#4FF6D8" stroke-width="3" stroke-linecap="round" stroke-linejoin="round"/>
<path d="M72.1058 17.79L60.5186 10.6387" stroke="#4FF6D8" stroke-width="3" stroke-linecap="round" stroke-linejoin="round"/>
</svg>
