<svg width="23" height="27" viewBox="0 0 23 27" fill="none" xmlns="http://www.w3.org/2000/svg">
<path d="M21.946 21.2748C21.8058 21.703 21.4567 21.9477 20.952 21.9477C18.9839 21.9477 17.0164 21.9425 15.0482 21.9403C13.8636 21.9388 12.6791 21.9403 11.4945 21.9403C11.4945 21.9403 5.262 21.947 2.14575 21.9514C1.80323 21.9522 1.49431 21.8962 1.25331 21.6232C0.891073 21.2128 0.918095 20.5981 1.33072 20.2243C1.52864 20.0468 1.73824 19.8774 1.96025 19.7342C2.96005 19.0896 3.41211 18.1473 3.58301 16.9685C3.94013 14.5043 4.27973 12.0318 4.79314 9.59894C5.38907 6.77884 7.15716 4.98531 9.91263 4.28252C13.6197 3.33726 17.4787 5.72391 18.2499 9.71532C18.5617 11.3283 18.783 12.9599 19.0467 14.5834C19.2088 15.5831 19.3658 16.5835 19.536 17.5818C19.6616 18.3174 20.0209 18.9187 20.5957 19.3805C20.9112 19.6334 21.2361 19.8722 21.5531 20.1229C21.9504 20.4377 22.087 20.8458 21.946 21.2748Z" stroke="white" stroke-miterlimit="10"/>
<path d="M9 4.54002L9 3.46645C9 2.10469 10.1188 1 11.4994 1C12.1903 1 12.8149 1.27648 13.2673 1.72272C13.7197 2.16896 14 2.78618 14 3.46645V4.5" stroke="white" stroke-miterlimit="10"/>
<path d="M14.9737 21.9395V22.0402C14.9737 24.0001 13.4181 25.5892 11.4996 25.5892C9.58108 25.5892 8.02625 24.0001 8.02625 22.0402V21.9432" stroke="white" stroke-miterlimit="10"/>
<circle cx="18.5" cy="8.5" r="3.5" fill="#4CFFD4"/>
</svg>
