<svg width="234" height="270" viewBox="0 0 234 270" fill="none" xmlns="http://www.w3.org/2000/svg">
<path d="M61.9118 267.719C74.5448 264.411 84.6607 256.531 91.0664 246.332C91.3014 245.933 91.595 245.434 91.83 245.035C92.2998 244.237 92.7697 243.439 93.0816 242.682C93.1404 242.583 93.1991 242.483 93.2578 242.383C99.7445 232.501 109.783 224.979 121.943 221.794C134.26 218.569 146.586 220.319 156.996 225.777C157.095 225.835 157.294 225.952 157.492 226.069C157.988 226.361 158.583 226.711 159.079 227.003C159.773 227.412 160.368 227.762 161.063 228.171C161.36 228.346 161.558 228.463 161.856 228.638C162.253 228.872 162.649 229.105 163.204 229.298C164.651 230.016 166.157 230.634 167.623 231.093L167.821 231.21C167.821 231.21 167.821 231.21 167.92 231.269C170.04 231.979 172.218 232.59 174.455 233.101C174.653 233.218 174.91 233.235 175.167 233.252C177.107 233.588 179.105 233.824 181.161 233.96C181.518 234.036 181.933 234.011 182.289 234.087C184.246 234.165 186.263 234.143 188.297 233.863C189.028 233.756 189.759 233.649 190.49 233.542C192.109 233.287 193.729 233.032 195.407 232.677C195.881 232.552 196.296 232.528 196.711 232.504C197.185 232.38 197.717 232.156 198.191 232.032C199.671 231.56 201.151 231.088 202.69 230.516C203.439 230.152 204.287 229.845 205.036 229.48C206.692 228.709 208.249 227.879 209.707 226.991C210.14 226.709 210.574 226.427 210.948 226.245C212.623 225.215 214.099 224.07 215.575 222.924C216.008 222.642 216.401 222.201 216.834 221.919C218.545 220.374 220.157 218.771 221.728 217.009L221.846 216.81C221.963 216.61 222.022 216.511 222.14 216.311C223.101 215.131 224.063 213.951 224.926 212.713C225.22 212.214 225.513 211.715 225.807 211.217C226.394 210.219 227.04 209.122 227.628 208.124C227.98 207.526 228.274 207.027 228.626 206.429C229.272 205.332 229.661 204.217 230.109 203.003C230.403 202.504 230.597 201.947 230.733 201.49C231.316 199.818 231.9 198.147 232.226 196.459C232.362 196.001 232.457 195.386 232.494 194.87C232.783 193.697 233.033 192.366 233.223 191.135C233.377 190.42 233.374 189.746 233.428 188.972C233.56 187.841 233.534 186.751 233.666 185.62C233.721 184.846 233.618 184.114 233.673 183.34C233.647 182.25 233.521 181.101 233.396 179.953C233.293 179.221 233.289 178.547 233.245 177.715C233.039 176.25 232.774 174.885 232.41 173.462C232.388 173.046 232.267 172.571 232.186 172.255C230.932 167.352 228.929 162.815 226.434 158.659C226.235 158.542 226.254 158.284 226.055 158.168C225.357 157.085 224.56 155.944 223.762 154.803C223.483 154.37 223.145 154.036 222.767 153.545C222.15 152.778 221.532 152.012 220.915 151.245C220.338 150.637 219.761 150.029 219.185 149.421C218.747 149.029 218.369 148.537 217.833 148.087C216.958 147.304 216.084 146.52 215.151 145.837C214.953 145.72 214.754 145.603 214.457 145.428C213.285 144.469 212.054 143.61 210.666 142.793C210.368 142.617 209.971 142.384 209.575 142.15C209.575 142.15 209.575 142.15 209.475 142.092C208.682 141.625 207.988 141.216 207.136 140.848C207.136 140.848 207.036 140.79 206.937 140.732C197.114 134.276 189.663 124.247 186.549 112.07C183.394 99.7342 185.201 87.3649 190.695 76.8985C190.754 76.7987 190.872 76.5992 190.989 76.3997C191.283 75.901 191.635 75.3025 191.929 74.8037C192.34 74.1055 192.692 73.507 193.103 72.8087C198.815 62.2012 200.64 49.574 197.445 37.0804C190.69 10.6697 163.911 -5.09762 137.54 1.80817C111.168 8.71397 95.2516 35.7462 102.006 62.1568C105.404 75.4411 113.807 85.8962 124.717 92.32L125.212 92.6119C135.707 99.06 144.011 109.457 147.327 122.425C150.644 135.393 148.467 148.619 142.281 159.35L141.87 160.048C141.87 160.048 141.753 160.248 141.694 160.348C135.211 170.904 124.86 179.183 111.912 182.574C98.9627 185.965 85.7844 183.847 75.1134 177.698L74.4191 177.29C74.4191 177.29 74.2207 177.173 74.1215 177.114C63.3513 170.907 50.2722 168.848 37.3233 172.239C20.9003 176.54 8.41686 188.668 3.16582 203.71C-0.00465228 212.725 -0.758196 222.624 1.79002 232.588C4.33822 242.551 9.68455 250.938 16.8372 257.164C16.8372 257.164 17.0356 257.281 17.1348 257.339C17.2339 257.398 17.4323 257.515 17.5315 257.573C29.3129 267.734 45.6467 271.978 61.9118 267.719Z" fill="white" fill-opacity="0.04"/>
</svg>
