<?xml version="1.0" standalone="no"?>
<!DOCTYPE svg PUBLIC "-//W3C//DTD SVG 20010904//EN"
 "http://www.w3.org/TR/2001/REC-SVG-20010904/DTD/svg10.dtd">
<svg version="1.0" xmlns="http://www.w3.org/2000/svg"
 width="1920.000000pt" height="1920.000000pt" viewBox="0 0 1920.000000 1920.000000"
 preserveAspectRatio="xMidYMid meet">

<g transform="translate(0.000000,1920.000000) scale(0.100000,-0.100000)"
fill="#000000" stroke="none">
<path d="M6889 14625 c-269 -38 -534 -149 -745 -311 -109 -83 -272 -258 -346
-370 -36 -54 -949 -1678 -2029 -3609 -1362 -2434 -1977 -3542 -2006 -3615
-354 -884 151 -1878 1072 -2110 632 -160 1313 92 1674 619 32 47 429 748 881
1556 452 809 842 1502 867 1540 136 208 361 365 613 428 130 32 350 30 481 -5
235 -63 438 -201 571 -388 25 -36 422 -737 882 -1559 460 -821 855 -1521 877
-1555 302 -446 829 -709 1369 -683 723 35 1314 536 1471 1249 26 119 37 395
20 523 -22 167 -78 351 -152 498 -69 135 -3935 7037 -3984 7112 -224 339 -588
580 -1005 665 -135 28 -375 35 -511 15z"/>
<path d="M11911 14629 c-106 -12 -265 -53 -373 -94 -502 -194 -863 -621 -980
-1159 -30 -138 -32 -464 -5 -601 25 -122 71 -262 122 -370 61 -129 3968 -7108
4021 -7183 219 -306 533 -520 899 -612 534 -135 1097 18 1490 405 466 458 598
1180 325 1770 -40 88 -3928 7041 -3995 7145 -166 260 -443 483 -747 604 -220
87 -510 123 -757 95z"/>
</g>
</svg>
