<svg xmlns="http://www.w3.org/2000/svg" fill="none" viewBox="237 761 3329.09 381.5">
<rect width="3842" height="1920" fill="none"/>
<path d="M1186.4 1141C1151.06 1141 1119.73 1133.33 1092.4 1118C1065.4 1102.33 1044.23 1081 1028.9 1054C1013.56 1026.67 1005.9 995.5 1005.9 960.5C1005.9 924.833 1013.56 893.5 1028.9 866.5C1044.23 839.167 1065.23 817.833 1091.9 802.5C1118.9 787.167 1149.9 779.5 1184.9 779.5C1220.23 779.5 1251.23 787.333 1277.9 803C1304.9 818.333 1326.06 839.667 1341.4 867C1356.73 894 1364.4 925.167 1364.4 960.5C1364.4 995.5 1356.73 1026.67 1341.4 1054C1326.4 1081 1305.4 1102.33 1278.4 1118C1251.73 1133.33 1221.06 1141 1186.4 1141ZM1186.4 1078.5C1207.73 1078.5 1226.4 1073.5 1242.4 1063.5C1258.73 1053.17 1271.4 1039.17 1280.4 1021.5C1289.73 1003.83 1294.4 983.5 1294.4 960.5C1294.4 937.167 1289.73 916.667 1280.4 899C1271.06 881.333 1258.23 867.5 1241.9 857.5C1225.56 847.167 1206.56 842 1184.9 842C1163.9 842 1145.06 847.167 1128.4 857.5C1112.06 867.5 1099.23 881.333 1089.9 899C1080.56 916.667 1075.9 937.167 1075.9 960.5C1075.9 983.5 1080.56 1003.83 1089.9 1021.5C1099.23 1039.17 1112.23 1053.17 1128.9 1063.5C1145.56 1073.5 1164.73 1078.5 1186.4 1078.5Z" fill="url(#paint0_linear_2102_487)"/>
<path d="M1410.45 1135V885H1472.45L1476.45 931V1135H1410.45ZM1575.95 1135V1007H1641.95V1135H1575.95ZM1575.95 1007C1575.95 990 1573.95 976.833 1569.95 967.5C1566.28 958.167 1560.95 951.5 1553.95 947.5C1546.95 943.167 1538.78 941 1529.45 941C1512.45 940.667 1499.28 945.833 1489.95 956.5C1480.95 967.167 1476.45 983 1476.45 1004H1454.45C1454.45 977.333 1458.28 954.833 1465.95 936.5C1473.95 917.833 1484.95 903.667 1498.95 894C1513.28 884 1529.95 879 1548.95 879C1568.62 879 1585.45 883 1599.45 891C1613.45 899 1624.12 911.5 1631.45 928.5C1638.78 945.167 1642.28 966.833 1641.95 993.5V1007H1575.95Z" fill="url(#paint1_linear_2102_487)"/>
<path d="M1704.13 1135V785H1778.63L1880.63 936L1982.63 785H2056.63V1135H1988.63V892L1880.63 1051L1772.63 892.5V1135H1704.13Z" fill="url(#paint2_linear_2102_487)"/>
<path d="M2127.34 1135V885H2193.34V1135H2127.34ZM2160.34 844.5C2150.34 844.5 2141.51 840.833 2133.84 833.5C2126.17 825.833 2122.34 816.833 2122.34 806.5C2122.34 796.167 2126.17 787.333 2133.84 780C2141.51 772.333 2150.34 768.5 2160.34 768.5C2170.67 768.5 2179.51 772.333 2186.84 780C2194.51 787.333 2198.34 796.167 2198.34 806.5C2198.34 816.833 2194.51 825.833 2186.84 833.5C2179.51 840.833 2170.67 844.5 2160.34 844.5Z" fill="url(#paint3_linear_2102_487)"/>
<path d="M2374.7 1141C2348.7 1141 2325.53 1135.5 2305.2 1124.5C2284.87 1113.17 2269.03 1097.67 2257.7 1078C2246.37 1058 2240.7 1035.33 2240.7 1010C2240.7 984.333 2246.37 961.667 2257.7 942C2269.03 922.333 2284.7 907 2304.7 896C2324.7 884.667 2347.7 879 2373.7 879C2398.7 879 2421.53 885.167 2442.2 897.5C2462.87 909.833 2477.87 927.667 2487.2 951L2425.2 973C2420.53 963.333 2413.2 955.667 2403.2 950C2393.53 944 2382.7 941 2370.7 941C2358.37 941 2347.53 944 2338.2 950C2328.87 955.667 2321.53 963.667 2316.2 974C2310.87 984.333 2308.2 996.333 2308.2 1010C2308.2 1023.67 2310.87 1035.67 2316.2 1046C2321.53 1056 2329.03 1064 2338.7 1070C2348.37 1076 2359.37 1079 2371.7 1079C2383.7 1079 2394.53 1075.83 2404.2 1069.5C2414.2 1063.17 2421.53 1054.83 2426.2 1044.5L2488.7 1066.5C2479.03 1090.17 2463.87 1108.5 2443.2 1121.5C2422.87 1134.5 2400.03 1141 2374.7 1141Z" fill="url(#paint4_linear_2102_487)"/>
<path d="M2573.65 1003.5C2573.65 976.5 2578.82 954.167 2589.15 936.5C2599.82 918.833 2613.32 905.667 2629.65 897C2646.32 888.333 2663.65 884 2681.65 884V948C2666.32 948 2651.82 949.833 2638.15 953.5C2624.82 957.167 2613.98 963.167 2605.65 971.5C2597.32 979.833 2593.15 990.5 2593.15 1003.5H2573.65ZM2527.15 1135V885H2593.15V1135H2527.15Z" fill="url(#paint5_linear_2102_487)"/>
<path d="M2834.1 1141C2808.77 1141 2786.1 1135.5 2766.1 1124.5C2746.44 1113.17 2730.94 1097.67 2719.6 1078C2708.6 1058.33 2703.1 1035.67 2703.1 1010C2703.1 984.333 2708.6 961.667 2719.6 942C2730.6 922.333 2745.94 907 2765.6 896C2785.27 884.667 2807.77 879 2833.1 879C2858.77 879 2881.44 884.667 2901.1 896C2920.77 907 2936.1 922.333 2947.1 942C2958.1 961.667 2963.6 984.333 2963.6 1010C2963.6 1035.67 2958.1 1058.33 2947.1 1078C2936.1 1097.67 2920.77 1113.17 2901.1 1124.5C2881.77 1135.5 2859.44 1141 2834.1 1141ZM2834.1 1080C2846.44 1080 2857.27 1077 2866.6 1071C2875.94 1065 2883.1 1056.83 2888.1 1046.5C2893.44 1035.83 2896.1 1023.67 2896.1 1010C2896.1 996.333 2893.44 984.333 2888.1 974C2882.77 963.333 2875.27 955 2865.6 949C2856.27 943 2845.44 940 2833.1 940C2821.1 940 2810.27 943 2800.6 949C2791.27 955 2783.94 963.333 2778.6 974C2773.27 984.333 2770.6 996.333 2770.6 1010C2770.6 1023.67 2773.27 1035.83 2778.6 1046.5C2783.94 1056.83 2791.44 1065 2801.1 1071C2810.77 1077 2821.77 1080 2834.1 1080Z" fill="url(#paint6_linear_2102_487)"/>
<path d="M3040.63 1142.5C3029.63 1142.5 3020.13 1138.5 3012.13 1130.5C3004.46 1122.5 3000.63 1113 3000.63 1102C3000.63 1091.33 3004.46 1082 3012.13 1074C3020.13 1066 3029.63 1062 3040.63 1062C3051.63 1062 3060.96 1066 3068.63 1074C3076.63 1082 3080.63 1091.33 3080.63 1102C3080.63 1113 3076.63 1122.5 3068.63 1130.5C3060.96 1138.5 3051.63 1142.5 3040.63 1142.5Z" fill="url(#paint7_linear_2102_487)"/>
<path d="M3383.15 1135L3249.15 785H3317.65L3455.65 1135H3383.15ZM3106.65 1135L3244.65 785H3313.15L3179.15 1135H3106.65ZM3171.65 1058V997.5H3391.15V1058H3171.65Z" fill="url(#paint8_linear_2102_487)"/>
<path d="M3497.59 1135V785H3566.09V1135H3497.59Z" fill="url(#paint9_linear_2102_487)"/>
<path d="M611.899 1127.48C583.795 1143.3 548.185 1133.34 532.364 1105.23L472.22 997.751C457.837 972.041 420.824 972.041 406.441 997.751L346.297 1105.23C330.476 1133.34 294.867 1143.3 266.762 1127.48C238.783 1111.74 228.791 1076.38 244.303 1048.35C244.36 1048.22 244.44 1048.09 244.509 1047.96C244.566 1047.86 244.623 1047.76 244.68 1047.66L387.689 792.122C387.689 792.122 387.724 792.053 387.746 792.019L388.454 790.764C391.796 784.822 396.027 779.7 400.875 775.446C401.879 774.568 402.928 773.712 404.012 772.891C404.513 772.503 405.038 772.127 405.563 771.762C406.578 771.032 407.639 770.347 408.711 769.674C409.11 769.423 409.509 769.184 409.92 768.967C410.171 768.808 410.433 768.659 410.696 768.511L411.14 768.271C411.54 768.043 411.95 767.827 412.361 767.61C412.406 767.587 412.452 767.564 412.498 767.541C413.034 767.256 413.581 766.994 414.129 766.732C414.699 766.446 415.281 766.184 415.863 765.933C416.364 765.705 416.878 765.488 417.38 765.294C417.881 765.089 418.395 764.884 418.908 764.701C419.501 764.473 420.094 764.268 420.699 764.063C421.292 763.857 421.896 763.663 422.501 763.481C426.744 762.203 431.135 761.405 435.572 761.12C436.211 761.074 436.838 761.051 437.466 761.029C438.709 760.994 439.952 760.994 441.207 761.029C441.834 761.051 442.462 761.074 443.1 761.12C447.537 761.405 451.929 762.203 456.172 763.481C456.776 763.663 457.381 763.857 457.974 764.063C458.578 764.268 459.171 764.473 459.765 764.701C460.278 764.884 460.791 765.089 461.293 765.294C461.795 765.488 462.308 765.705 462.81 765.933C463.392 766.184 463.973 766.446 464.544 766.732C465.091 766.994 465.639 767.256 466.175 767.541C466.22 767.564 466.266 767.587 466.312 767.61C466.722 767.827 467.133 768.043 467.532 768.271C467.943 768.488 468.353 768.716 468.753 768.967C469.163 769.184 469.562 769.423 469.962 769.674C471.034 770.336 472.083 771.02 473.11 771.762C473.634 772.127 474.159 772.503 474.661 772.891C475.733 773.701 476.783 774.556 477.798 775.446C482.645 779.7 486.877 784.822 490.219 790.764L490.926 792.019L490.983 792.122L633.981 1047.66C634.038 1047.76 634.095 1047.86 634.152 1047.96C634.221 1048.09 634.301 1048.22 634.358 1048.35C649.87 1076.38 639.878 1111.74 611.899 1127.48Z" fill="url(#paint10_linear_2102_487)"/>
<path d="M573.93 848.023L573.942 848.034V848.046L717.853 1105.23C733.673 1133.34 769.283 1143.3 797.387 1127.48C825.367 1111.74 835.358 1076.38 819.846 1048.35C819.789 1048.22 819.709 1048.09 819.641 1047.96C819.584 1047.86 819.527 1047.76 819.47 1047.66L675.718 790.764C659.91 762.66 624.3 752.702 596.195 768.511C568.091 784.331 558.133 819.918 573.93 848.023Z" fill="url(#paint11_linear_2102_487)"/>
<defs>
<linearGradient id="paint0_linear_2102_487" x1="2589.87" y1="1547.65" x2="2160.91" y2="-126.51" gradientUnits="userSpaceOnUse">
<stop stop-color="#5C5EF1"/>
<stop offset="1" stop-color="#4CFFD4"/>
</linearGradient>
<linearGradient id="paint1_linear_2102_487" x1="2589.87" y1="1547.65" x2="2160.91" y2="-126.51" gradientUnits="userSpaceOnUse">
<stop stop-color="#5C5EF1"/>
<stop offset="1" stop-color="#4CFFD4"/>
</linearGradient>
<linearGradient id="paint2_linear_2102_487" x1="2589.87" y1="1547.65" x2="2160.91" y2="-126.51" gradientUnits="userSpaceOnUse">
<stop stop-color="#5C5EF1"/>
<stop offset="1" stop-color="#4CFFD4"/>
</linearGradient>
<linearGradient id="paint3_linear_2102_487" x1="2589.87" y1="1547.65" x2="2160.91" y2="-126.51" gradientUnits="userSpaceOnUse">
<stop stop-color="#5C5EF1"/>
<stop offset="1" stop-color="#4CFFD4"/>
</linearGradient>
<linearGradient id="paint4_linear_2102_487" x1="2589.87" y1="1547.65" x2="2160.91" y2="-126.51" gradientUnits="userSpaceOnUse">
<stop stop-color="#5C5EF1"/>
<stop offset="1" stop-color="#4CFFD4"/>
</linearGradient>
<linearGradient id="paint5_linear_2102_487" x1="2589.87" y1="1547.65" x2="2160.91" y2="-126.51" gradientUnits="userSpaceOnUse">
<stop stop-color="#5C5EF1"/>
<stop offset="1" stop-color="#4CFFD4"/>
</linearGradient>
<linearGradient id="paint6_linear_2102_487" x1="2589.87" y1="1547.65" x2="2160.91" y2="-126.51" gradientUnits="userSpaceOnUse">
<stop stop-color="#5C5EF1"/>
<stop offset="1" stop-color="#4CFFD4"/>
</linearGradient>
<linearGradient id="paint7_linear_2102_487" x1="2589.87" y1="1547.65" x2="2160.91" y2="-126.51" gradientUnits="userSpaceOnUse">
<stop stop-color="#5C5EF1"/>
<stop offset="1" stop-color="#4CFFD4"/>
</linearGradient>
<linearGradient id="paint8_linear_2102_487" x1="2589.87" y1="1547.65" x2="2160.91" y2="-126.51" gradientUnits="userSpaceOnUse">
<stop stop-color="#5C5EF1"/>
<stop offset="1" stop-color="#4CFFD4"/>
</linearGradient>
<linearGradient id="paint9_linear_2102_487" x1="2589.87" y1="1547.65" x2="2160.91" y2="-126.51" gradientUnits="userSpaceOnUse">
<stop stop-color="#5C5EF1"/>
<stop offset="1" stop-color="#4CFFD4"/>
</linearGradient>
<linearGradient id="paint10_linear_2102_487" x1="286.831" y1="718.796" x2="613.158" y2="980.518" gradientUnits="userSpaceOnUse">
<stop stop-color="#4CFFD4"/>
<stop offset="1" stop-color="#5C5EF1"/>
</linearGradient>
<linearGradient id="paint11_linear_2102_487" x1="598.533" y1="718.792" x2="871.216" y2="859.698" gradientUnits="userSpaceOnUse">
<stop stop-color="#4CFFD4"/>
<stop offset="1" stop-color="#5C5EF1"/>
</linearGradient>
</defs>
</svg>