<svg width="21" height="17" viewBox="0 0 21 17" fill="none" xmlns="http://www.w3.org/2000/svg">
<path d="M3.41142 12.4788C2.4522 11.5948 1.66009 10.5337 1.08523 9.34717C0.971591 9.1082 0.971591 8.82913 1.08523 8.59016C2.77807 5.09753 6.35759 2.68945 10.5003 2.68945C11.3509 2.68945 12.1747 2.79139 12.9669 2.98357H12.9685" stroke="#6A6A6A" stroke-miterlimit="10"/>
<path d="M15.4443 3.93164C17.3812 4.97275 18.952 6.6071 19.9129 8.59071C20.0282 8.82968 20.0282 9.10875 19.9129 9.34772C18.2217 12.8404 14.6405 15.2501 10.4995 15.2501C8.64457 15.2501 6.90327 14.7671 5.39258 13.9199" stroke="#6A6A6A" stroke-miterlimit="10"/>
<path d="M12.9346 6.42383C13.5378 7.03044 13.9088 7.86266 13.9088 8.78511C13.9088 10.635 12.4098 12.134 10.5599 12.134C9.63078 12.134 8.79021 11.7564 8.18359 11.1447" stroke="#6A6A6A" stroke-miterlimit="10"/>
<path d="M2.72656 16.5698L18.3933 1" stroke="#6A6A6A" stroke-miterlimit="10"/>
</svg>
