<svg width="21" height="15" viewBox="0 0 21 15" fill="none" xmlns="http://www.w3.org/2000/svg">
<path d="M19.9135 7.99707C18.2208 11.4894 14.6416 13.899 10.5008 13.899C6.36012 13.899 2.77752 11.4894 1.08647 7.99707C0.971175 7.75812 0.971175 7.47906 1.08647 7.24011C2.77752 3.74774 6.35845 1.33984 10.5008 1.33984C14.6432 1.33984 18.2208 3.74774 19.9135 7.24011C20.0288 7.47906 20.0288 7.75812 19.9135 7.99707Z" stroke="#6A6A6A" stroke-miterlimit="10"/>
<path d="M10.5596 10.7833C12.409 10.7833 13.9083 9.28402 13.9083 7.4346C13.9083 5.58519 12.409 4.08594 10.5596 4.08594C8.71019 4.08594 7.21094 5.58519 7.21094 7.4346C7.21094 9.28402 8.71019 10.7833 10.5596 10.7833Z" stroke="#6A6A6A" stroke-miterlimit="10"/>
</svg>
