<svg width="75" height="73" viewBox="0 0 75 73" fill="none" xmlns="http://www.w3.org/2000/svg">
<path d="M27.0453 51.9662C26.393 50.8364 26.5304 49.4164 27.3886 48.4333L29.3111 46.2268L28.7181 44.7475L27.579 44.8942C26.883 44.9816 26.212 44.5946 25.9436 43.9454L25.5441 42.981C25.2227 42.2039 25.5753 41.3145 26.34 40.968L28.6713 39.9132L21.309 20.4261C21.1842 20.0953 20.9845 19.7988 20.7254 19.5554L18.3816 17.3676C18.2349 17.2303 18.1382 17.0492 18.1038 16.8526L16.9741 10.0272C16.8274 9.14393 17.3111 8.27944 18.1382 7.94238L18.9496 7.61156C19.8266 7.25265 20.8315 7.58971 21.3153 8.40427L24.6391 13.9814C24.7233 14.1218 24.767 14.2841 24.767 14.4464V18.3132C24.767 18.5941 24.817 18.8719 24.9168 19.1309L32.3665 38.6742L34.3233 37.6786C34.9725 37.3509 35.7621 37.5818 36.1334 38.206L36.8232 39.3733C37.1571 39.9413 37.0448 40.6653 36.5517 41.1022L35.1784 42.3225L35.9181 43.8518L38.4585 44.1982C39.4135 44.3293 40.225 44.9628 40.5839 45.8554L43.8297 54.1384" stroke="#4FF6D8" stroke-width="4" stroke-linecap="round" stroke-linejoin="round"/>
<path d="M46.4358 53.0931L48.7328 51.7823L48.2241 27.3017C48.2116 26.1158 48.6985 24.9797 49.563 24.1683L52.1252 21.7652L52.7401 21.1847C55.0027 18.9688 56.3947 15.8947 56.3947 12.496C56.3947 8.10175 54.0758 4.26301 50.596 2.11581C50.0623 1.79123 49.3663 2.18759 49.3663 2.82426V10.1522C49.3663 10.845 49.0418 11.5004 48.4862 11.9186L44.9128 14.6089C44.1575 15.1863 43.1151 15.2112 42.338 14.6775L39.008 12.4055C38.4056 11.9873 38.0467 11.3038 38.0467 10.5735V4.28798C38.0467 3.62634 37.513 3.09266 36.8514 3.09266C36.6173 3.09266 36.4082 3.16132 36.2241 3.2768C36.143 3.31113 36.0712 3.37042 36.0025 3.43908C32.6881 5.992 30.725 10.2365 31.3991 14.8648C31.9484 19.5493 35.5593 22.8513 37.7315 24.4429C38.7801 25.2076 39.3794 26.4372 39.3794 27.7324V32" stroke="#4FF6D8" stroke-width="4" stroke-linecap="round" stroke-linejoin="round"/>
<path d="M57.5494 30.5598C58.8695 37.0732 57.0063 44.1015 51.9535 49.1543C43.9452 57.1626 30.9622 57.1626 22.9539 49.1543C17.795 43.9954 15.9599 36.7705 17.4486 30.1416" stroke="#598AEB" stroke-width="4" stroke-linecap="round" stroke-linejoin="round"/>
<path d="M64.3312 23.5938L66.2194 27.6791L72.842 28.272L72.8701 41.5953L65.823 42.207C65.823 42.207 65.1333 44.969 64.7463 46.0176C64.3593 47.0663 62.9892 49.8501 62.9892 49.8501L67.5832 55.3149L58.1174 64.7807L52.4873 60.1024C52.4873 60.1024 49.591 61.5599 48.6516 61.925C47.7122 62.2902 44.7442 63.1266 44.7442 63.1266L44.4446 70.6387L30.9997 70.1143L30.5783 63.4792C30.5783 63.4792 27.1235 62.2621 26.0218 61.7939C24.9201 61.3258 22.5014 60.0462 22.5014 60.0462L17.174 64.403L8.00779 55.2369L12.892 49.4507C12.892 49.4507 11.0601 46.3173 10.6575 45.4496C10.2549 44.582 9.36227 41.8637 9.36227 41.8637L2 41.1115L2.0749 28.2658L9.21247 27.7384L10.7917 23.3066" stroke="#598AEB" stroke-width="4" stroke-linecap="round" stroke-linejoin="round"/>
</svg>
