<svg width="1049" height="600" viewBox="0 0 1049 600" fill="none" xmlns="http://www.w3.org/2000/svg">
<path d="M90.1309 589L85.4434 576.671C85.6712 578.722 85.7852 580.162 85.7852 580.992V589H82.6479V572.533H86.7617L91.5591 585.191C91.3312 583.279 91.2173 581.794 91.2173 580.736V572.533H94.3545V589H90.1309ZM109.894 582.384C109.894 584.573 109.341 586.266 108.234 587.462C107.127 588.65 105.536 589.244 103.461 589.244C101.459 589.244 99.9046 588.65 98.7979 587.462C97.6911 586.266 97.1377 584.573 97.1377 582.384C97.1377 580.203 97.687 578.518 98.7856 577.33C99.8843 576.142 101.467 575.548 103.534 575.548C107.774 575.548 109.894 577.826 109.894 582.384ZM106.305 582.384C106.305 580.821 106.098 579.686 105.683 578.978C105.268 578.262 104.568 577.904 103.583 577.904C102.574 577.904 101.846 578.262 101.398 578.978C100.958 579.694 100.739 580.829 100.739 582.384C100.739 583.954 100.963 585.102 101.41 585.826C101.866 586.542 102.537 586.9 103.424 586.9C104.433 586.9 105.166 586.546 105.622 585.838C106.077 585.122 106.305 583.971 106.305 582.384ZM141.046 589H137.458L136.334 584.972H130.768L129.645 589H126.044L131.452 572.533H135.651L141.046 589ZM133.551 574.754C133.486 575.096 133.364 575.609 133.185 576.292C133.014 576.968 132.461 578.958 131.525 582.262H135.578C134.625 578.909 134.064 576.903 133.893 576.244C133.73 575.584 133.616 575.088 133.551 574.754ZM142.975 572.533H154.157V575.316H150.36V586.217H154.157V589H142.975V586.217H146.771V575.316H142.975V572.533Z" fill="white"/>
<path d="M176.672 35V18.5327H188.489V21.3159H180.273V25.271H187.744V28.0542H180.273V32.2168H188.989V35H176.672ZM197.986 24.1113V35H194.568V24.1113H191.443V21.792H194.568V20.7788C194.568 19.3628 195.011 18.3008 195.898 17.5928C196.794 16.8766 198.067 16.5186 199.719 16.5186C201.013 16.5186 202.344 16.6325 203.711 16.8604V19.1064C202.49 18.9518 201.359 18.8745 200.317 18.8745C199.52 18.8745 198.93 19.0413 198.547 19.375C198.173 19.7005 197.986 20.2743 197.986 21.0962V21.792H203.394V24.1113H197.986ZM213 24.1113V35H209.583V24.1113H206.458V21.792H209.583V20.7788C209.583 19.3628 210.026 18.3008 210.913 17.5928C211.808 16.8766 213.082 16.5186 214.734 16.5186C216.028 16.5186 217.358 16.6325 218.726 16.8604V19.1064C217.505 18.9518 216.374 18.8745 215.332 18.8745C214.535 18.8745 213.944 19.0413 213.562 19.375C213.188 19.7005 213 20.2743 213 21.0962V21.792H218.408V24.1113H213ZM229.736 32.6807H234.045V35H221.484V32.6807H226.306V24.1113H222.766V21.792H229.736V32.6807ZM226.306 19.4116V16.8848H229.736V19.4116H226.306ZM242.676 35.2441C240.674 35.2441 239.128 34.6501 238.037 33.4619C236.947 32.2656 236.401 30.6014 236.401 28.4692C236.401 26.2882 236.951 24.5915 238.049 23.3789C239.148 22.1582 240.706 21.5479 242.725 21.5479C244.279 21.5479 245.565 21.9385 246.582 22.7197C247.599 23.501 248.238 24.5793 248.499 25.9546L245.044 26.1255C244.946 25.45 244.702 24.9129 244.312 24.5142C243.921 24.1073 243.368 23.9038 242.651 23.9038C240.885 23.9038 240.002 25.3809 240.002 28.335C240.002 31.3786 240.902 32.9004 242.7 32.9004C243.351 32.9004 243.896 32.6969 244.336 32.29C244.775 31.875 245.048 31.2606 245.154 30.4468L248.596 30.6055C248.474 31.5088 248.149 32.3145 247.62 33.0225C247.099 33.7305 246.411 34.2798 245.557 34.6704C244.702 35.0529 243.742 35.2441 242.676 35.2441ZM259.766 32.6807H264.075V35H251.514V32.6807H256.335V24.1113H252.795V21.792H259.766V32.6807ZM256.335 19.4116V16.8848H259.766V19.4116H256.335ZM272.729 35.2441C270.679 35.2441 269.096 34.6419 267.981 33.4375C266.866 32.2249 266.309 30.5241 266.309 28.335C266.309 26.8701 266.569 25.6331 267.09 24.624C267.619 23.6149 268.368 22.8499 269.336 22.3291C270.304 21.8083 271.452 21.5479 272.778 21.5479C274.707 21.5479 276.204 22.1908 277.271 23.4766C278.337 24.7624 278.87 26.5894 278.87 28.9575V29.0552H269.91C269.91 30.2515 270.174 31.1995 270.703 31.8994C271.24 32.5993 271.973 32.9492 272.9 32.9492C273.503 32.9492 274.036 32.8231 274.5 32.5708C274.963 32.3104 275.277 31.9116 275.439 31.3745L278.674 31.6553C278.227 32.8027 277.482 33.6898 276.44 34.3164C275.399 34.9349 274.162 35.2441 272.729 35.2441ZM272.729 23.7085C271.891 23.7085 271.224 23.9933 270.728 24.563C270.231 25.1245 269.967 25.9058 269.934 26.9067H275.549C275.492 25.9302 275.212 25.153 274.707 24.5752C274.211 23.9974 273.551 23.7085 272.729 23.7085ZM290.161 35V27.4438C290.161 26.2964 290.002 25.4541 289.685 24.917C289.376 24.3799 288.839 24.1113 288.074 24.1113C287.227 24.1113 286.548 24.4735 286.035 25.1978C285.531 25.9139 285.278 26.8213 285.278 27.9199V35H281.848V24.7461C281.848 24.0381 281.836 23.4603 281.812 23.0127C281.795 22.557 281.775 22.1501 281.75 21.792H285.022C285.046 21.9466 285.079 22.3617 285.12 23.0371C285.16 23.7044 285.181 24.1642 285.181 24.4165H285.229C285.693 23.4074 286.275 22.675 286.975 22.2192C287.675 21.7635 288.509 21.5356 289.478 21.5356C292.212 21.5356 293.579 23.2284 293.579 26.6138V35H290.161ZM302.734 35.2441C300.732 35.2441 299.186 34.6501 298.096 33.4619C297.005 32.2656 296.46 30.6014 296.46 28.4692C296.46 26.2882 297.009 24.5915 298.108 23.3789C299.207 22.1582 300.765 21.5479 302.783 21.5479C304.338 21.5479 305.623 21.9385 306.641 22.7197C307.658 23.501 308.297 24.5793 308.557 25.9546L305.103 26.1255C305.005 25.45 304.761 24.9129 304.37 24.5142C303.979 24.1073 303.426 23.9038 302.71 23.9038C300.944 23.9038 300.061 25.3809 300.061 28.335C300.061 31.3786 300.96 32.9004 302.759 32.9004C303.41 32.9004 303.955 32.6969 304.395 32.29C304.834 31.875 305.107 31.2606 305.212 30.4468L308.655 30.6055C308.533 31.5088 308.207 32.3145 307.678 33.0225C307.157 33.7305 306.47 34.2798 305.615 34.6704C304.761 35.0529 303.8 35.2441 302.734 35.2441ZM314.099 40.188C313.236 40.188 312.496 40.1351 311.877 40.0293V37.5879L312.5 37.6489L313.123 37.6855C313.611 37.6855 314.014 37.6082 314.331 37.4536C314.657 37.299 314.945 37.0426 315.198 36.6846C315.458 36.3265 315.747 35.7202 316.064 34.8657L310.596 21.792H314.221L316.541 28.2251C316.866 29.1121 317.277 30.4712 317.773 32.3022L317.883 31.8506L318.872 28.2739L321.069 21.792H324.658L319.189 35.6958C318.538 37.3722 317.826 38.54 317.053 39.1992C316.28 39.8584 315.295 40.188 314.099 40.188Z" fill="#5C5EF1"/>
<path d="M734.124 16.7114C734.124 19.0552 733.729 20.9188 732.939 22.3022C732.158 23.6857 731.015 24.585 729.509 25C729.794 25.7894 730.193 26.3631 730.706 26.7212C731.218 27.0874 731.902 27.2705 732.756 27.2705C733.123 27.2705 733.623 27.2176 734.258 27.1118V29.5776C733.232 29.8055 732.248 29.9194 731.304 29.9194C729.969 29.9194 728.866 29.541 727.996 28.7842C727.125 28.0355 726.421 26.8026 725.884 25.0854C724.256 24.7437 723.015 23.8729 722.161 22.4731C721.306 21.0734 720.879 19.1528 720.879 16.7114C720.879 13.9038 721.449 11.7961 722.588 10.3882C723.735 8.98031 725.375 8.27637 727.507 8.27637C729.639 8.27637 731.275 8.98031 732.415 10.3882C733.554 11.7961 734.124 13.9038 734.124 16.7114ZM730.474 16.7114C730.474 12.9761 729.485 11.1084 727.507 11.1084C725.522 11.1084 724.529 12.9761 724.529 16.7114C724.529 18.5832 724.777 20.0033 725.273 20.9717C725.778 21.932 726.523 22.4121 727.507 22.4121C728.492 22.4121 729.233 21.932 729.729 20.9717C730.225 20.0033 730.474 18.5832 730.474 16.7114ZM740.093 11.792V19.2017C740.093 20.3247 740.272 21.1873 740.63 21.7896C740.996 22.3836 741.517 22.6807 742.192 22.6807C742.925 22.6807 743.527 22.3226 743.999 21.6064C744.479 20.8822 744.719 19.9707 744.719 18.8721V11.792H748.149V22.0459C748.149 23.1689 748.182 24.1536 748.247 25H744.976C744.878 23.8281 744.829 22.9533 744.829 22.3755H744.768C743.897 24.2879 742.563 25.2441 740.764 25.2441C739.43 25.2441 738.412 24.821 737.712 23.9746C737.013 23.1201 736.663 21.8547 736.663 20.1782V11.792H740.093ZM755.388 25.2441C754.111 25.2441 753.114 24.8983 752.397 24.2065C751.681 23.5067 751.323 22.526 751.323 21.2646C751.323 19.8975 751.746 18.8599 752.593 18.1519C753.447 17.4357 754.721 17.0654 756.414 17.041L759.136 16.9922V16.3208C759.136 15.4826 758.993 14.8478 758.708 14.4165C758.424 13.9852 757.964 13.7695 757.329 13.7695C756.735 13.7695 756.296 13.9201 756.011 14.2212C755.734 14.5142 755.563 14.9862 755.498 15.6372L751.921 15.4663C752.361 12.854 754.212 11.5479 757.476 11.5479C759.119 11.5479 760.377 11.9507 761.248 12.7563C762.126 13.562 762.566 14.7461 762.566 16.3086V21.0938C762.566 21.8343 762.647 22.347 762.81 22.6318C762.981 22.9085 763.262 23.0469 763.652 23.0469C763.913 23.0469 764.165 23.0225 764.409 22.9736V24.8291C764.206 24.8779 764.023 24.9227 763.86 24.9634C763.697 25.0041 763.534 25.0366 763.372 25.061C763.209 25.0854 763.034 25.1058 762.847 25.1221C762.668 25.1383 762.456 25.1465 762.212 25.1465C761.349 25.1465 760.71 24.9349 760.295 24.5117C759.889 24.0885 759.644 23.466 759.563 22.644H759.49C758.977 23.5636 758.391 24.2269 757.732 24.6338C757.081 25.0407 756.3 25.2441 755.388 25.2441ZM759.136 18.8843L757.5 18.9087C756.768 18.925 756.235 19.0023 755.901 19.1406C755.575 19.2708 755.327 19.4865 755.156 19.7876C754.985 20.0806 754.9 20.4834 754.9 20.9961C754.9 22.2331 755.388 22.8516 756.365 22.8516C757.154 22.8516 757.813 22.5423 758.342 21.9238C758.871 21.2972 759.136 20.5078 759.136 19.5557V18.8843ZM774.736 22.6807H779.045V25H766.484V22.6807H771.306V9.2041H767.766V6.88477H774.736V22.6807ZM789.751 22.6807H794.06V25H781.499V22.6807H786.321V14.1113H782.781V11.792H789.751V22.6807ZM786.321 9.41162V6.88477H789.751V9.41162H786.321ZM799.077 14.1113H797.039V11.792H799.248L800.322 8.34961H802.471V11.792H807.17V14.1113H802.471V20.5811C802.471 21.2972 802.536 21.7814 802.666 22.0337C802.804 22.2778 803.024 22.4731 803.325 22.6196C803.626 22.758 804.049 22.8271 804.595 22.8271C805.604 22.8271 806.641 22.7173 807.708 22.4976V24.7681C806.552 24.9552 805.734 25.0651 805.254 25.0977C804.774 25.1383 804.273 25.1587 803.752 25.1587C802.719 25.1587 801.852 25.0203 801.152 24.7437C800.461 24.4588 799.936 24.0194 799.578 23.4253C799.228 22.8231 799.053 21.9808 799.053 20.8984L799.077 14.1113ZM814.055 30.188C813.193 30.188 812.452 30.1351 811.833 30.0293V27.5879L812.456 27.6489L813.079 27.6855C813.567 27.6855 813.97 27.6082 814.287 27.4536C814.613 27.299 814.902 27.0426 815.154 26.6846C815.414 26.3265 815.703 25.7202 816.021 24.8657L810.552 11.792H814.177L816.497 18.2251C816.822 19.1121 817.233 20.4712 817.729 22.3022L817.839 21.8506L818.828 18.2739L821.025 11.792H824.614L819.146 25.6958C818.494 27.3722 817.782 28.54 817.009 29.1992C816.236 29.8584 815.251 30.188 814.055 30.188Z" fill="#4CFFD4"/>
<path d="M616.131 589L611.443 576.671C611.671 578.722 611.785 580.162 611.785 580.992V589H608.648V572.533H612.762L617.559 585.191C617.331 583.279 617.217 581.794 617.217 580.736V572.533H620.354V589H616.131ZM635.894 582.384C635.894 584.573 635.341 586.266 634.234 587.462C633.127 588.65 631.536 589.244 629.461 589.244C627.459 589.244 625.905 588.65 624.798 587.462C623.691 586.266 623.138 584.573 623.138 582.384C623.138 580.203 623.687 578.518 624.786 577.33C625.884 576.142 627.467 575.548 629.534 575.548C633.774 575.548 635.894 577.826 635.894 582.384ZM632.305 582.384C632.305 580.821 632.098 579.686 631.683 578.978C631.268 578.262 630.568 577.904 629.583 577.904C628.574 577.904 627.846 578.262 627.398 578.978C626.958 579.694 626.739 580.829 626.739 582.384C626.739 583.954 626.963 585.102 627.41 585.826C627.866 586.542 628.537 586.9 629.424 586.9C630.433 586.9 631.166 586.546 631.622 585.838C632.077 585.122 632.305 583.971 632.305 582.384ZM667.046 589H663.458L662.334 584.972H656.768L655.645 589H652.044L657.452 572.533H661.651L667.046 589ZM659.551 574.754C659.486 575.096 659.364 575.609 659.185 576.292C659.014 576.968 658.461 578.958 657.525 582.262H661.578C660.625 578.909 660.064 576.903 659.893 576.244C659.73 575.584 659.616 575.088 659.551 574.754ZM668.975 572.533H680.157V575.316H676.36V586.217H680.157V589H668.975V586.217H672.771V575.316H668.975V572.533Z" fill="white"/>
<path d="M346.084 589V578.404C346.084 577.55 346.149 576.325 346.279 574.73C345.799 577.09 345.494 578.478 345.364 578.893L343.85 584.605H341.189L339.651 578.893C339.415 578.014 339.106 576.626 338.723 574.73L338.809 575.951C338.866 576.805 338.894 577.623 338.894 578.404V589H336.208V572.533H340.444L342.092 578.624C342.214 579.007 342.369 579.946 342.556 581.444C342.719 580.182 342.882 579.247 343.044 578.636L344.705 572.533H348.794V589H346.084ZM359.707 586.681H364.016V589H351.455V586.681H356.277V578.111H352.737V575.792H359.707V586.681ZM356.277 573.412V570.885H359.707V573.412H356.277ZM372.646 589.244C370.645 589.244 369.098 588.65 368.008 587.462C366.917 586.266 366.372 584.601 366.372 582.469C366.372 580.288 366.921 578.591 368.02 577.379C369.119 576.158 370.677 575.548 372.695 575.548C374.25 575.548 375.535 575.938 376.553 576.72C377.57 577.501 378.209 578.579 378.469 579.955L375.015 580.125C374.917 579.45 374.673 578.913 374.282 578.514C373.892 578.107 373.338 577.904 372.622 577.904C370.856 577.904 369.973 579.381 369.973 582.335C369.973 585.379 370.872 586.9 372.671 586.9C373.322 586.9 373.867 586.697 374.307 586.29C374.746 585.875 375.019 585.261 375.125 584.447L378.567 584.605C378.445 585.509 378.119 586.314 377.59 587.022C377.069 587.73 376.382 588.28 375.527 588.67C374.673 589.053 373.713 589.244 372.646 589.244ZM393.24 578.648C392.328 578.494 391.466 578.417 390.652 578.417C389.382 578.417 388.373 578.897 387.625 579.857C386.884 580.817 386.514 582.083 386.514 583.653V589H383.096V580.443C383.096 579.824 383.039 579.096 382.925 578.258C382.819 577.42 382.664 576.598 382.461 575.792H385.769C386.062 576.85 386.249 577.778 386.331 578.575H386.379C386.786 577.468 387.336 576.687 388.027 576.231C388.719 575.776 389.618 575.548 390.725 575.548C391.571 575.548 392.41 575.617 393.24 575.755V578.648ZM408.938 582.384C408.938 584.573 408.385 586.266 407.278 587.462C406.171 588.65 404.58 589.244 402.505 589.244C400.503 589.244 398.949 588.65 397.842 587.462C396.735 586.266 396.182 584.573 396.182 582.384C396.182 580.203 396.731 578.518 397.83 577.33C398.928 576.142 400.511 575.548 402.578 575.548C406.818 575.548 408.938 577.826 408.938 582.384ZM405.349 582.384C405.349 580.821 405.142 579.686 404.727 578.978C404.312 578.262 403.612 577.904 402.627 577.904C401.618 577.904 400.889 578.262 400.442 578.978C400.002 579.694 399.783 580.829 399.783 582.384C399.783 583.954 400.007 585.102 400.454 585.826C400.91 586.542 401.581 586.9 402.468 586.9C403.477 586.9 404.21 586.546 404.666 585.838C405.121 585.122 405.349 583.971 405.349 582.384ZM425.076 589H421.487L420.364 584.972H414.797L413.674 589H410.073L415.481 572.533H419.68L425.076 589ZM417.581 574.754C417.515 575.096 417.393 575.609 417.214 576.292C417.043 576.968 416.49 578.958 415.554 582.262H419.607C418.655 578.909 418.093 576.903 417.922 576.244C417.76 575.584 417.646 575.088 417.581 574.754ZM427.004 572.533H438.186V575.316H434.39V586.217H438.186V589H427.004V586.217H430.801V575.316H427.004V572.533Z" fill="white"/>
<path d="M860.084 589V578.404C860.084 577.55 860.149 576.325 860.279 574.73C859.799 577.09 859.494 578.478 859.364 578.893L857.85 584.605H855.189L853.651 578.893C853.415 578.014 853.106 576.626 852.723 574.73L852.809 575.951C852.866 576.805 852.894 577.623 852.894 578.404V589H850.208V572.533H854.444L856.092 578.624C856.214 579.007 856.369 579.946 856.556 581.444C856.719 580.182 856.882 579.247 857.044 578.636L858.705 572.533H862.794V589H860.084ZM873.707 586.681H878.016V589H865.455V586.681H870.277V578.111H866.737V575.792H873.707V586.681ZM870.277 573.412V570.885H873.707V573.412H870.277ZM886.646 589.244C884.645 589.244 883.098 588.65 882.008 587.462C880.917 586.266 880.372 584.601 880.372 582.469C880.372 580.288 880.921 578.591 882.02 577.379C883.119 576.158 884.677 575.548 886.695 575.548C888.25 575.548 889.535 575.938 890.553 576.72C891.57 577.501 892.209 578.579 892.469 579.955L889.015 580.125C888.917 579.45 888.673 578.913 888.282 578.514C887.892 578.107 887.338 577.904 886.622 577.904C884.856 577.904 883.973 579.381 883.973 582.335C883.973 585.379 884.872 586.9 886.671 586.9C887.322 586.9 887.867 586.697 888.307 586.29C888.746 585.875 889.019 585.261 889.125 584.447L892.567 584.605C892.445 585.509 892.119 586.314 891.59 587.022C891.069 587.73 890.382 588.28 889.527 588.67C888.673 589.053 887.713 589.244 886.646 589.244ZM907.24 578.648C906.328 578.494 905.466 578.417 904.652 578.417C903.382 578.417 902.373 578.897 901.625 579.857C900.884 580.817 900.514 582.083 900.514 583.653V589H897.096V580.443C897.096 579.824 897.039 579.096 896.925 578.258C896.819 577.42 896.664 576.598 896.461 575.792H899.769C900.062 576.85 900.249 577.778 900.331 578.575H900.379C900.786 577.468 901.336 576.687 902.027 576.231C902.719 575.776 903.618 575.548 904.725 575.548C905.571 575.548 906.41 575.617 907.24 575.755V578.648ZM922.938 582.384C922.938 584.573 922.385 586.266 921.278 587.462C920.171 588.65 918.58 589.244 916.505 589.244C914.503 589.244 912.949 588.65 911.842 587.462C910.735 586.266 910.182 584.573 910.182 582.384C910.182 580.203 910.731 578.518 911.83 577.33C912.928 576.142 914.511 575.548 916.578 575.548C920.818 575.548 922.938 577.826 922.938 582.384ZM919.349 582.384C919.349 580.821 919.142 579.686 918.727 578.978C918.312 578.262 917.612 577.904 916.627 577.904C915.618 577.904 914.889 578.262 914.442 578.978C914.002 579.694 913.783 580.829 913.783 582.384C913.783 583.954 914.007 585.102 914.454 585.826C914.91 586.542 915.581 586.9 916.468 586.9C917.477 586.9 918.21 586.546 918.666 585.838C919.121 585.122 919.349 583.971 919.349 582.384ZM939.076 589H935.487L934.364 584.972H928.797L927.674 589H924.073L929.481 572.533H933.68L939.076 589ZM931.581 574.754C931.515 575.096 931.393 575.609 931.214 576.292C931.043 576.968 930.49 578.958 929.554 582.262H933.607C932.655 578.909 932.093 576.903 931.922 576.244C931.76 575.584 931.646 575.088 931.581 574.754ZM941.004 572.533H952.186V575.316H948.39V586.217H952.186V589H941.004V586.217H944.801V575.316H941.004V572.533Z" fill="white"/>
<rect x="23" y="443" width="192" height="106" fill="url(#paint0_linear_744_1054)"/>
<rect x="549" y="393" width="192" height="156" fill="url(#paint1_linear_744_1054)"/>
<rect x="303" y="127" width="169" height="432" fill="url(#paint2_linear_744_1054)"/>
<rect x="817" y="229" width="169" height="330" fill="url(#paint3_linear_744_1054)"/>
<path d="M358.862 386.054V391.035H356.104V386.054H351.233V383.32H356.104V378.339H358.862V383.32H363.77V386.054H358.862ZM366.516 393V390.62C366.923 389.724 367.501 388.829 368.25 387.934C369.006 387.031 370.105 385.993 371.545 384.821C372.668 383.902 373.397 383.267 373.73 382.917C374.064 382.567 374.325 382.229 374.512 381.904C374.707 381.57 374.805 381.232 374.805 380.891C374.805 380.305 374.613 379.845 374.231 379.511C373.848 379.178 373.287 379.011 372.546 379.011C371.814 379.011 371.252 379.21 370.862 379.609C370.479 380 370.231 380.59 370.117 381.379L366.663 381.184C366.858 379.589 367.452 378.372 368.445 377.534C369.446 376.695 370.805 376.276 372.522 376.276C374.296 376.276 375.7 376.683 376.733 377.497C377.767 378.303 378.284 379.385 378.284 380.744C378.284 381.631 378.003 382.498 377.441 383.344C376.888 384.182 376.054 385.037 374.939 385.908C373.36 387.128 372.298 388.007 371.753 388.544C371.208 389.082 370.813 389.627 370.569 390.18H378.552V393H366.516ZM391.992 389.497V393H388.721V389.497H380.896V386.921L388.159 376.533H391.992V386.945H394.287V389.497H391.992ZM388.721 381.928C388.721 381.489 388.733 381.013 388.757 380.5C388.79 379.987 388.814 379.658 388.831 379.511C388.619 379.967 388.236 380.626 387.683 381.489L383.777 386.945H388.721V381.928ZM408.606 384.76C408.606 387.519 408.085 389.623 407.043 391.071C406.002 392.52 404.488 393.244 402.502 393.244C400.509 393.244 399.003 392.524 397.986 391.083C396.977 389.635 396.472 387.527 396.472 384.76C396.472 381.896 396.965 379.768 397.949 378.376C398.942 376.976 400.492 376.276 402.6 376.276C404.635 376.276 406.144 376.984 407.129 378.4C408.114 379.816 408.606 381.936 408.606 384.76ZM405.164 384.76C405.164 383.328 405.078 382.197 404.907 381.367C404.736 380.528 404.472 379.918 404.114 379.536C403.756 379.153 403.243 378.962 402.576 378.962C401.876 378.962 401.339 379.153 400.964 379.536C400.59 379.918 400.317 380.528 400.146 381.367C399.984 382.197 399.902 383.328 399.902 384.76C399.902 386.176 399.988 387.303 400.159 388.142C400.338 388.98 400.61 389.59 400.977 389.973C401.343 390.355 401.86 390.546 402.527 390.546C403.471 390.546 404.146 390.103 404.553 389.216C404.96 388.329 405.164 386.844 405.164 384.76ZM401.221 386.225V383.186H403.845V386.225H401.221ZM412.939 393H410.803L422.18 376.484H424.341L412.939 393ZM413.611 376.386C415.914 376.386 417.065 377.753 417.065 380.488C417.065 381.847 416.768 382.88 416.174 383.588C415.58 384.296 414.709 384.65 413.562 384.65C412.415 384.65 411.544 384.3 410.95 383.601C410.356 382.901 410.059 381.863 410.059 380.488C410.059 379.129 410.343 378.107 410.913 377.424C411.483 376.732 412.382 376.386 413.611 376.386ZM414.917 380.488C414.917 379.617 414.807 378.99 414.587 378.608C414.376 378.225 414.042 378.034 413.586 378.034C413.131 378.034 412.785 378.221 412.549 378.596C412.321 378.962 412.207 379.593 412.207 380.488C412.207 381.367 412.325 381.997 412.561 382.38C412.797 382.754 413.139 382.941 413.586 382.941C414.473 382.941 414.917 382.124 414.917 380.488ZM421.619 384.882C423.922 384.882 425.073 386.25 425.073 388.984C425.073 390.343 424.776 391.376 424.182 392.084C423.588 392.792 422.717 393.146 421.57 393.146C420.422 393.146 419.552 392.797 418.958 392.097C418.363 391.397 418.066 390.359 418.066 388.984C418.066 387.625 418.351 386.604 418.921 385.92C419.491 385.228 420.39 384.882 421.619 384.882ZM422.925 388.984C422.925 388.113 422.815 387.486 422.595 387.104C422.384 386.722 422.05 386.53 421.594 386.53C421.139 386.53 420.793 386.717 420.557 387.092C420.329 387.458 420.215 388.089 420.215 388.984C420.215 389.863 420.333 390.493 420.569 390.876C420.805 391.25 421.147 391.438 421.594 391.438C422.481 391.438 422.925 390.62 422.925 388.984Z" fill="white"/>
<path d="M879.862 376.054V381.035H877.104V376.054H872.233V373.32H877.104V368.339H879.862V373.32H884.77V376.054H879.862ZM899.687 378.337C899.687 379.867 899.145 381.067 898.063 381.938C896.981 382.809 895.467 383.244 893.522 383.244C891.593 383.244 890.08 382.813 888.981 381.95C887.89 381.088 887.345 379.891 887.345 378.361C887.345 377.32 887.667 376.437 888.31 375.712C888.961 374.988 889.807 374.541 890.849 374.37V374.321C889.929 374.117 889.18 373.678 888.603 373.002C888.033 372.327 887.748 371.542 887.748 370.646C887.748 369.312 888.253 368.25 889.262 367.46C890.279 366.671 891.683 366.276 893.473 366.276C895.32 366.276 896.745 366.659 897.746 367.424C898.755 368.189 899.259 369.271 899.259 370.671C899.259 371.534 898.97 372.307 898.393 372.99C897.815 373.674 897.062 374.109 896.134 374.296V374.345C897.233 374.524 898.1 374.968 898.734 375.676C899.369 376.384 899.687 377.271 899.687 378.337ZM895.731 370.854C895.731 369.405 894.979 368.681 893.473 368.681C891.992 368.681 891.251 369.405 891.251 370.854C891.251 371.595 891.443 372.16 891.825 372.551C892.216 372.941 892.773 373.137 893.498 373.137C894.987 373.137 895.731 372.376 895.731 370.854ZM896.134 378.056C896.134 377.234 895.906 376.612 895.451 376.188C895.003 375.757 894.336 375.542 893.449 375.542C892.627 375.542 891.992 375.769 891.544 376.225C891.097 376.673 890.873 377.299 890.873 378.105C890.873 379.92 891.764 380.827 893.546 380.827C894.409 380.827 895.056 380.607 895.487 380.168C895.919 379.729 896.134 379.025 896.134 378.056ZM914.591 374.76C914.591 377.519 914.07 379.623 913.029 381.071C911.987 382.52 910.473 383.244 908.488 383.244C906.494 383.244 904.988 382.524 903.971 381.083C902.962 379.635 902.458 377.527 902.458 374.76C902.458 371.896 902.95 369.768 903.935 368.376C904.927 366.976 906.478 366.276 908.585 366.276C910.62 366.276 912.13 366.984 913.114 368.4C914.099 369.816 914.591 371.936 914.591 374.76ZM911.149 374.76C911.149 373.328 911.063 372.197 910.893 371.367C910.722 370.528 910.457 369.918 910.099 369.536C909.741 369.153 909.228 368.962 908.561 368.962C907.861 368.962 907.324 369.153 906.95 369.536C906.575 369.918 906.303 370.528 906.132 371.367C905.969 372.197 905.888 373.328 905.888 374.76C905.888 376.176 905.973 377.303 906.144 378.142C906.323 378.98 906.596 379.59 906.962 379.973C907.328 380.355 907.845 380.546 908.512 380.546C909.456 380.546 910.132 380.103 910.539 379.216C910.945 378.329 911.149 376.844 911.149 374.76ZM907.206 376.225V373.186H909.831V376.225H907.206ZM918.925 383H916.789L928.166 366.484H930.326L918.925 383ZM919.596 366.386C921.899 366.386 923.051 367.753 923.051 370.488C923.051 371.847 922.754 372.88 922.16 373.588C921.566 374.296 920.695 374.65 919.547 374.65C918.4 374.65 917.529 374.3 916.935 373.601C916.341 372.901 916.044 371.863 916.044 370.488C916.044 369.129 916.329 368.107 916.898 367.424C917.468 366.732 918.367 366.386 919.596 366.386ZM920.902 370.488C920.902 369.617 920.792 368.99 920.573 368.608C920.361 368.225 920.028 368.034 919.572 368.034C919.116 368.034 918.77 368.221 918.534 368.596C918.306 368.962 918.192 369.593 918.192 370.488C918.192 371.367 918.31 371.997 918.546 372.38C918.782 372.754 919.124 372.941 919.572 372.941C920.459 372.941 920.902 372.124 920.902 370.488ZM927.604 374.882C929.907 374.882 931.059 376.25 931.059 378.984C931.059 380.343 930.762 381.376 930.167 382.084C929.573 382.792 928.703 383.146 927.555 383.146C926.408 383.146 925.537 382.797 924.943 382.097C924.349 381.397 924.052 380.359 924.052 378.984C924.052 377.625 924.337 376.604 924.906 375.92C925.476 375.228 926.375 374.882 927.604 374.882ZM928.91 378.984C928.91 378.113 928.8 377.486 928.581 377.104C928.369 376.722 928.035 376.53 927.58 376.53C927.124 376.53 926.778 376.717 926.542 377.092C926.314 377.458 926.2 378.089 926.2 378.984C926.2 379.863 926.318 380.493 926.554 380.876C926.79 381.25 927.132 381.438 927.58 381.438C928.467 381.438 928.91 380.62 928.91 378.984Z" fill="white"/>
<path d="M1 55V539H1049" stroke="#8A8A8A" stroke-dasharray="10 10"/>
<path d="M119 454L388 127C388 127 543.485 287.913 644.5 403.5L903 227.694" stroke="#8A8A8A" stroke-dasharray="10 10"/>
<circle cx="119" cy="464" r="7" fill="white" stroke="#5C5EF1" stroke-width="4"/>
<circle cx="388" cy="117" r="7" fill="white" stroke="#5C5EF1" stroke-width="4"/>
<circle cx="645" cy="413" r="7" fill="white" stroke="#4CFFD4" stroke-width="4"/>
<circle cx="902" cy="219" r="7" fill="white" stroke="#4CFFD4" stroke-width="4"/>
<defs>
<linearGradient id="paint0_linear_744_1054" x1="119" y1="443" x2="119" y2="549" gradientUnits="userSpaceOnUse">
<stop stop-color="#5C5EF1" stop-opacity="0"/>
<stop offset="1" stop-color="#5C5EF1"/>
</linearGradient>
<linearGradient id="paint1_linear_744_1054" x1="645" y1="393" x2="645" y2="549" gradientUnits="userSpaceOnUse">
<stop stop-color="#4CFFD4" stop-opacity="0"/>
<stop offset="1" stop-color="#4CFFD4"/>
</linearGradient>
<linearGradient id="paint2_linear_744_1054" x1="387.5" y1="127" x2="387.5" y2="559" gradientUnits="userSpaceOnUse">
<stop stop-color="#5C5EF1" stop-opacity="0"/>
<stop offset="1" stop-color="#5C5EF1"/>
</linearGradient>
<linearGradient id="paint3_linear_744_1054" x1="901.5" y1="229" x2="901.5" y2="559" gradientUnits="userSpaceOnUse">
<stop stop-color="#4CFFD4" stop-opacity="0"/>
<stop offset="1" stop-color="#4CFFD4"/>
</linearGradient>
</defs>
</svg>
