<svg width="230" height="279" viewBox="0 0 230 279" fill="none" xmlns="http://www.w3.org/2000/svg">
<path d="M179.119 246.187C183.57 233.91 182.828 221.108 178.07 210.044C177.875 209.624 177.631 209.1 177.436 208.68C177.046 207.84 176.656 207 176.21 206.313C176.162 206.208 176.113 206.103 176.064 205.998C171.613 195.047 171.121 182.513 175.405 170.696C179.744 158.725 188.184 149.573 198.588 144.103C198.692 144.055 198.901 143.958 199.11 143.861C199.631 143.618 200.258 143.327 200.78 143.085C201.51 142.746 202.137 142.455 202.867 142.115C203.181 141.97 203.389 141.873 203.703 141.728C204.12 141.534 204.538 141.34 205.011 140.992C206.424 140.209 207.787 139.32 208.998 138.375L209.207 138.278C209.207 138.278 209.207 138.278 209.311 138.229C211.1 136.888 212.839 135.442 214.53 133.891C214.739 133.794 214.899 133.592 215.059 133.39C216.437 131.985 217.765 130.474 219.046 128.859C219.31 128.608 219.526 128.253 219.79 128.002C220.966 126.435 222.093 124.763 223.018 122.93C223.345 122.267 223.672 121.605 223.999 120.943C224.708 119.464 225.418 117.986 226.078 116.403C226.245 115.943 226.461 115.587 226.676 115.232C226.843 114.771 226.961 114.206 227.128 113.746C227.58 112.259 228.032 110.773 228.435 109.182C228.56 108.358 228.79 107.486 228.915 106.662C229.22 104.861 229.422 103.108 229.519 101.404C229.532 100.887 229.546 100.37 229.609 99.9584C229.712 97.9958 229.607 96.1301 229.502 94.2644C229.516 93.7475 229.377 93.1741 229.39 92.6572C229.09 90.3716 228.686 88.1344 228.128 85.8408L228.031 85.6308C227.933 85.4208 227.884 85.3158 227.787 85.1058C227.362 83.6441 226.937 82.1823 226.407 80.769C226.163 80.244 225.92 79.7191 225.676 79.1942C225.188 78.1443 224.652 76.9895 224.164 75.9396C223.872 75.3097 223.628 74.7847 223.336 74.1548C222.799 73 222.103 72.0471 221.358 70.9891C221.114 70.4642 220.766 69.9877 220.466 69.6163C219.422 68.1869 218.377 66.7576 217.173 65.5301C216.873 65.1587 216.421 64.7307 216.017 64.4077C215.216 63.5033 214.262 62.5423 213.357 61.6864C212.856 61.1534 212.299 60.7739 211.693 60.2895C210.837 59.5385 209.925 58.941 209.068 58.19C208.463 57.7055 207.801 57.3745 207.196 56.89C206.284 56.2925 205.267 55.7435 204.251 55.1945C203.59 54.8635 203.033 54.484 202.323 54.048C201 53.386 199.726 52.8289 198.348 52.3203C197.993 52.1023 197.533 51.9328 197.227 51.8198C192.479 50.0681 187.607 49.1402 182.769 48.8342C182.561 48.9311 182.359 48.7697 182.15 48.8666C180.862 48.8265 179.47 48.8348 178.078 48.8432C177.563 48.8271 177.097 48.916 176.477 48.9485C175.496 49.0213 174.515 49.0942 173.533 49.1671C172.705 49.2965 171.877 49.4258 171.048 49.5552C170.478 49.6926 169.858 49.7251 169.183 49.9109C168.042 50.1858 166.9 50.4606 165.808 50.8404C165.599 50.9374 165.39 51.0343 165.077 51.1798C163.623 51.6 162.217 52.1253 160.755 52.804C160.442 52.9494 160.025 53.1433 159.607 53.3372C159.607 53.3372 159.607 53.3372 159.503 53.3857C158.668 53.7736 157.937 54.1129 157.15 54.6057C157.15 54.6057 157.046 54.6542 156.942 54.7027C146.05 59.1227 133.564 59.5612 121.772 55.2101C109.826 50.8025 100.671 42.2915 95.1753 31.8252C95.1265 31.7203 95.029 31.5103 94.9315 31.3003C94.6877 30.7754 94.3952 30.1455 94.1514 29.6205C93.8101 28.8856 93.5175 28.2557 93.1762 27.5208C87.6879 16.7961 78.3303 8.12354 66.2318 3.65946C40.6565 -5.77727 12.4718 7.31217 3.18157 32.941C-6.10867 58.5699 7.10464 87.0213 32.6799 96.4581C45.5442 101.205 58.9215 100.225 70.4042 94.8922L70.9261 94.6498C82.1931 89.6724 95.466 88.7411 108.024 93.3747C120.582 98.0083 130.232 107.311 135.553 118.496L135.895 119.231C135.895 119.231 135.992 119.441 136.041 119.546C141.049 130.876 141.987 144.098 137.425 156.682C132.863 169.266 123.637 178.911 112.516 184.204L111.786 184.543C111.786 184.543 111.577 184.64 111.472 184.688C100.247 190.029 91.1257 199.626 86.564 212.21C80.7784 228.171 83.6728 245.333 93.0735 258.197C98.6931 265.925 106.414 272.167 116.062 275.727C125.71 279.287 135.65 279.649 144.837 277.297C144.837 277.297 145.045 277.2 145.15 277.151C145.254 277.103 145.463 277.006 145.567 276.957C160.621 273.029 173.39 261.994 179.119 246.187Z" fill="white" fill-opacity="0.04"/>
</svg>
