<svg width="69" height="69" viewBox="0 0 69 69" fill="none" xmlns="http://www.w3.org/2000/svg">
<path d="M18.9563 24.5618C22.3229 19.4803 28.0943 16.1309 34.6473 16.1309C45.0364 16.1309 53.4559 24.5532 53.4559 34.9394C53.4559 41.6327 49.9604 47.51 44.6957 50.8423" stroke="#598AEB" stroke-width="3" stroke-linecap="round" stroke-linejoin="round"/>
<path d="M10.0416 24.6819L11.4673 20.8086L7.55669 16.1279L16.1823 7.46794L21.1493 11.6419C21.1493 11.6419 23.388 10.2964 24.3184 9.86983C25.2488 9.44327 27.9455 8.52432 27.9455 8.52432L28.5095 2H40.788L41.4064 8.6875C41.4064 8.6875 44.2291 9.62077 45.0765 9.99293C45.9239 10.3651 48.3888 11.7478 48.3888 11.7478L53.4559 7.07001L61.8382 16.1308L57.8074 20.7084C57.8074 20.7084 59.2588 23.7372 59.6682 24.7564C60.0776 25.7755 60.819 28.1717 60.819 28.1717L67.1 28.7986V40.6878L60.1806 41.2719C60.1806 41.2719 59.3361 44.4925 59.0355 45.317C58.7349 46.1415 57.5497 48.4832 57.5497 48.4832L61.8382 53.7451L53.4559 62.03L48.4861 57.7415L44.587 59.5938" stroke="#598AEB" stroke-width="3" stroke-linecap="round" stroke-linejoin="round"/>
<path d="M15.7185 31.1406L2 44.4927" stroke="#4FF5D8" stroke-width="3" stroke-linecap="round" stroke-linejoin="round"/>
<path d="M4.82544 31.1406H15.7184V41.6643" stroke="#4FF5D8" stroke-width="3" stroke-linecap="round" stroke-linejoin="round"/>
<path d="M38.6723 53.6475L24.9509 66.9995" stroke="#4FF5D8" stroke-width="3" stroke-linecap="round" stroke-linejoin="round"/>
<path d="M27.7795 53.6475H38.6725V64.174" stroke="#4FF5D8" stroke-width="3" stroke-linecap="round" stroke-linejoin="round"/>
<path d="M38.2518 31.1406L9.99023 59.2075" stroke="#4FF5D8" stroke-width="3" stroke-linecap="round" stroke-linejoin="round"/>
<path d="M25.3721 31.1406H38.2518V43.5852" stroke="#4FF5D8" stroke-width="3" stroke-linecap="round" stroke-linejoin="round"/>
</svg>
