<svg width="70" height="62" viewBox="0 0 70 62" fill="none" xmlns="http://www.w3.org/2000/svg">
<path d="M36.8645 14.2518C40.6649 11.8904 45.5368 11.4195 49.909 13.4206C56.8396 16.5941 59.8858 24.7859 56.7123 31.719C54.668 36.1848 50.5384 39.0364 46.0077 39.6514" stroke="#5989EB" stroke-width="3" stroke-linecap="round" stroke-linejoin="round"/>
<path d="M30.8782 11.6092L33.0138 9.45915L31.8343 5.14221L40.2351 2L42.2747 6.30252C42.2747 6.30252 44.1797 6.08872 44.9316 6.08872C45.6836 6.08872 47.7616 6.29772 47.7616 6.29772L50.1326 2.11771L58.3245 5.87011L56.6933 10.5186C56.6933 10.5186 58.2908 12.0056 58.7449 12.5101C59.1989 13.0146 60.4193 14.6938 60.4193 14.6938L65.2287 13.1203L68.0514 21.7277L63.9651 23.5511C63.9651 23.5511 64.0059 26.0158 63.9699 26.8206C63.9339 27.6254 63.6936 29.4511 63.6936 29.4511L67.6935 31.7885L64.0612 39.721L59.2662 37.9961C59.2662 37.9961 57.7191 39.8867 57.2675 40.3455C56.8158 40.8044 55.3072 42.0055 55.3072 42.0055L56.5612 46.827L48.439 49.7938L46.4331 45.4144L43.2668 45.4576" stroke="#5989EB" stroke-width="3" stroke-linecap="round" stroke-linejoin="round"/>
<path d="M32.6677 42.087C31.5747 41.9116 30.4889 41.5873 29.4318 41.1044C23.1594 38.2313 20.404 30.8202 23.2771 24.5478C23.8417 23.3154 24.5816 22.2199 25.4536 21.2734" stroke="#5989EB" stroke-width="3" stroke-linecap="round" stroke-linejoin="round"/>
<path d="M31.3778 47.5521L29.2325 51.3333L21.819 47.9388L23.294 43.7324C23.294 43.7324 21.8478 42.3871 21.4394 41.9283C21.031 41.4694 19.9236 39.9536 19.9236 39.9536L15.5706 41.3758L13.017 33.5875L16.7165 31.9395C16.7165 31.9395 16.6781 29.7102 16.7117 28.9799C16.7453 28.2496 16.9615 26.5992 16.9615 26.5992L13.3437 24.4828L16.63 17.3047L20.9686 18.8638" stroke="#5989EB" stroke-width="3" stroke-linecap="round" stroke-linejoin="round"/>
<path d="M24.3366 55.8138C36.6728 55.8138 46.6732 45.8134 46.6732 33.4772C46.6732 21.1411 36.6728 11.1406 24.3366 11.1406C12.0004 11.1406 2 21.1411 2 33.4772C2 45.8134 12.0004 55.8138 24.3366 55.8138Z" stroke="#4FF6D8" stroke-width="3" stroke-linecap="round" stroke-linejoin="round"/>
<path d="M37.2178 51.7295L45.2895 59.8036" stroke="#4FF6D8" stroke-width="3" stroke-linecap="round" stroke-linejoin="round"/>
</svg>
