<svg width="62" height="63" viewBox="0 0 62 63" fill="none" xmlns="http://www.w3.org/2000/svg">
<path d="M14.8938 34.1245C13.8222 28.8376 15.3346 23.1328 19.4359 19.0315C25.9362 12.5312 36.4744 12.5312 42.9747 19.0315C47.1621 23.2189 48.6517 29.0833 47.4433 34.4639" stroke="#598AEB" stroke-width="3" stroke-linecap="round" stroke-linejoin="round"/>
<path d="M9.38992 39.7797L7.85731 36.4637L2.48178 35.9824L2.45898 25.168L8.17903 24.6715C8.17903 24.6715 8.73887 22.4296 9.053 21.5784C9.36712 20.7273 10.4792 18.4676 10.4792 18.4676L6.75029 14.0319L14.4336 6.34863L19.0035 10.146C19.0035 10.146 21.3544 8.96293 22.1169 8.66654C22.8794 8.37015 25.2885 7.69125 25.2885 7.69125L25.5317 1.59375L36.4449 2.01933L36.7869 7.40499C36.7869 7.40499 39.5911 8.39295 40.4854 8.77294C41.3796 9.15292 43.3429 10.1916 43.3429 10.1916L47.6671 6.65515L55.1072 14.0953L51.1427 18.7919C51.1427 18.7919 52.6297 21.3353 52.9565 22.0395C53.2833 22.7437 54.0078 24.9502 54.0078 24.9502L59.9837 25.5607L59.9229 35.9875L54.1294 36.4156L52.8476 40.0128" stroke="#598AEB" stroke-width="3" stroke-linecap="round" stroke-linejoin="round"/>
<path d="M27.8031 60.8237H44.5579C46.9366 60.8237 48.8644 58.8959 48.8644 56.5171V40.6059C48.8644 38.9568 47.5269 37.6192 45.8777 37.6192C44.2286 37.6192 42.891 38.9568 42.891 40.6059V43.3165V40.4666C42.891 38.8934 41.6168 37.6167 40.0412 37.6167C38.468 37.6167 37.1913 38.8909 37.1913 40.4666V43.3165V40.1904C37.1913 38.7718 36.0412 37.6192 34.62 37.6192C33.2014 37.6192 32.0488 38.7693 32.0488 40.1904V43.3165V28.5173C32.0488 26.7136 30.5871 25.252 28.7835 25.252C26.9798 25.252 25.5181 26.7136 25.5181 28.5173V47.3468L21.4143 40.8187C20.33 39.091 18.0045 38.6528 16.363 39.8637C14.9292 40.9225 14.5163 42.8883 15.4029 44.4336L23.3395 58.2473C24.2566 59.8433 25.9589 60.8287 27.8006 60.8287L27.8031 60.8237Z" stroke="#4FF5D8" stroke-width="3" stroke-linecap="round" stroke-linejoin="round"/>
</svg>
