<svg width="1029" height="925" viewBox="0 0 1029 925" fill="none" xmlns="http://www.w3.org/2000/svg">
<path d="M59.2227 674.015C59.2227 675.989 58.833 677.51 58.0537 678.576C57.2803 679.643 56.167 680.176 54.7139 680.176C53.2549 680.176 52.1416 679.651 51.374 678.603C50.6064 677.554 50.2227 676.024 50.2227 674.015C50.2227 672.04 50.6035 670.537 51.3652 669.506C52.127 668.475 53.249 667.959 54.7314 667.959C56.1787 667.959 57.2891 668.469 58.0625 669.488C58.8359 670.502 59.2227 672.011 59.2227 674.015ZM57.4561 674.015C57.4561 670.892 56.5479 669.33 54.7314 669.33C52.9033 669.33 51.9893 670.892 51.9893 674.015C51.9893 675.597 52.2207 676.792 52.6836 677.601C53.1465 678.409 53.8262 678.813 54.7227 678.813C55.6777 678.813 56.3721 678.403 56.8057 677.583C57.2393 676.763 57.4561 675.573 57.4561 674.015ZM69.3213 671.932C68.665 671.82 68.0439 671.765 67.458 671.765C66.5146 671.765 65.7529 672.119 65.1729 672.828C64.5928 673.537 64.3027 674.439 64.3027 675.535V680H62.7207V673.839C62.7207 673.394 62.6797 672.869 62.5977 672.266C62.5215 671.662 62.4102 671.07 62.2637 670.49H63.7666C64.001 671.299 64.1416 672.031 64.1885 672.688H64.2324C64.5254 672.031 64.8125 671.551 65.0938 671.246C65.375 670.936 65.709 670.704 66.0957 670.552C66.4824 670.394 66.9541 670.314 67.5107 670.314C68.1201 670.314 68.7236 670.364 69.3213 670.464V671.932ZM76.3525 683.727C75.3682 683.727 74.5771 683.524 73.9795 683.12C73.3818 682.716 73.001 682.136 72.8369 681.38L74.4541 681.16C74.5537 681.6 74.7676 681.937 75.0957 682.171C75.4297 682.411 75.8662 682.531 76.4053 682.531C77.8584 682.531 78.585 681.608 78.585 679.763V678.058H78.5674C78.2803 678.661 77.8818 679.118 77.3721 679.429C76.8623 679.739 76.2559 679.895 75.5527 679.895C74.3926 679.895 73.543 679.517 73.0039 678.761C72.4707 677.999 72.2041 676.804 72.2041 675.175C72.2041 673.517 72.4912 672.298 73.0654 671.519C73.6396 670.733 74.5244 670.341 75.7197 670.341C76.3818 670.341 76.9561 670.496 77.4424 670.807C77.9346 671.111 78.3125 671.548 78.5762 672.116H78.6025C78.6025 671.94 78.6143 671.645 78.6377 671.229C78.6611 670.807 78.6846 670.561 78.708 670.49H80.2109C80.1758 670.807 80.1582 671.463 80.1582 672.459V679.719C80.1582 681.049 79.8477 682.048 79.2266 682.716C78.6055 683.39 77.6475 683.727 76.3525 683.727ZM78.585 675.157C78.585 674.026 78.3652 673.139 77.9258 672.494C77.4863 671.844 76.8828 671.519 76.1152 671.519C75.3125 671.519 74.7324 671.8 74.375 672.362C74.0176 672.919 73.8389 673.851 73.8389 675.157C73.8389 676.042 73.9121 676.742 74.0586 677.258C74.2109 677.768 74.4453 678.14 74.7617 678.374C75.0781 678.608 75.5205 678.726 76.0889 678.726C76.5869 678.726 77.0234 678.588 77.3984 678.312C77.7793 678.031 78.0723 677.624 78.2773 677.091C78.4824 676.552 78.585 675.907 78.585 675.157ZM91.4346 679.024C91.5869 679.024 91.7598 679.004 91.9531 678.963V679.947C91.5547 680.041 91.1475 680.088 90.7314 680.088C90.1455 680.088 89.7178 679.936 89.4482 679.631C89.1846 679.32 89.0352 678.837 89 678.181H88.9473C88.5664 678.89 88.1152 679.399 87.5938 679.71C87.0781 680.021 86.4395 680.176 85.6777 680.176C84.752 680.176 84.0547 679.924 83.5859 679.42C83.1172 678.916 82.8828 678.225 82.8828 677.346C82.8828 675.301 84.2129 674.264 86.873 674.234L88.9473 674.199V673.681C88.9473 672.913 88.792 672.362 88.4814 672.028C88.1709 671.688 87.6758 671.519 86.9961 671.519C86.3047 671.519 85.8066 671.642 85.502 671.888C85.1973 672.134 85.0156 672.515 84.957 673.03L83.3047 672.881C83.5742 671.17 84.8135 670.314 87.0225 670.314C88.1943 670.314 89.0732 670.59 89.6592 671.141C90.251 671.686 90.5469 672.477 90.5469 673.514V677.609C90.5469 678.078 90.6084 678.433 90.7314 678.673C90.8545 678.907 91.0889 679.024 91.4346 679.024ZM86.082 678.972C86.6445 678.972 87.1426 678.837 87.5762 678.567C88.0098 678.298 88.3467 677.938 88.5869 677.486C88.8271 677.035 88.9473 676.569 88.9473 676.089V675.307L87.2773 675.342C86.5859 675.354 86.0586 675.43 85.6953 675.57C85.332 675.711 85.0479 675.928 84.8428 676.221C84.6436 676.508 84.5439 676.892 84.5439 677.372C84.5439 677.853 84.6729 678.239 84.9307 678.532C85.1943 678.825 85.5781 678.972 86.082 678.972ZM100.197 680V673.892C100.197 673.095 100.042 672.503 99.7314 672.116C99.4268 671.729 98.9375 671.536 98.2637 671.536C97.5371 671.536 96.9395 671.803 96.4707 672.336C96.0078 672.863 95.7764 673.581 95.7764 674.489V680H94.1943V672.521C94.1943 671.413 94.1768 670.736 94.1416 670.49H95.6357C95.6416 670.52 95.6475 670.599 95.6533 670.728C95.6592 670.856 95.665 671.006 95.6709 671.176C95.6826 671.34 95.6943 671.653 95.7061 672.116H95.7324C96.3477 670.915 97.3613 670.314 98.7734 670.314C99.7871 670.314 100.543 670.59 101.041 671.141C101.539 671.686 101.788 672.526 101.788 673.663V680H100.197ZM109.927 678.752H113.267V680H104.636V678.752H108.345V671.738H105.541V670.49H109.927V678.752ZM108.169 668.645V666.957H109.927V668.645H108.169ZM115.481 680V678.796L121.467 671.712H115.833V670.49H123.251V671.694L117.257 678.778H123.576V680H115.481ZM134.677 679.024C134.829 679.024 135.002 679.004 135.195 678.963V679.947C134.797 680.041 134.39 680.088 133.974 680.088C133.388 680.088 132.96 679.936 132.69 679.631C132.427 679.32 132.277 678.837 132.242 678.181H132.189C131.809 678.89 131.357 679.399 130.836 679.71C130.32 680.021 129.682 680.176 128.92 680.176C127.994 680.176 127.297 679.924 126.828 679.42C126.359 678.916 126.125 678.225 126.125 677.346C126.125 675.301 127.455 674.264 130.115 674.234L132.189 674.199V673.681C132.189 672.913 132.034 672.362 131.724 672.028C131.413 671.688 130.918 671.519 130.238 671.519C129.547 671.519 129.049 671.642 128.744 671.888C128.439 672.134 128.258 672.515 128.199 673.03L126.547 672.881C126.816 671.17 128.056 670.314 130.265 670.314C131.437 670.314 132.315 670.59 132.901 671.141C133.493 671.686 133.789 672.477 133.789 673.514V677.609C133.789 678.078 133.851 678.433 133.974 678.673C134.097 678.907 134.331 679.024 134.677 679.024ZM129.324 678.972C129.887 678.972 130.385 678.837 130.818 678.567C131.252 678.298 131.589 677.938 131.829 677.486C132.069 677.035 132.189 676.569 132.189 676.089V675.307L130.52 675.342C129.828 675.354 129.301 675.43 128.938 675.57C128.574 675.711 128.29 675.928 128.085 676.221C127.886 676.508 127.786 676.892 127.786 677.372C127.786 677.853 127.915 678.239 128.173 678.532C128.437 678.825 128.82 678.972 129.324 678.972ZM137.48 671.738V670.49H138.975L139.484 668.012H140.539V670.49H144.336V671.738H140.539V677.469C140.539 677.932 140.662 678.274 140.908 678.497C141.16 678.72 141.57 678.831 142.139 678.831C142.924 678.831 143.794 678.731 144.749 678.532V679.736C143.759 680.006 142.777 680.141 141.805 680.141C140.855 680.141 140.144 679.941 139.669 679.543C139.194 679.139 138.957 678.503 138.957 677.636V671.738H137.48ZM153.169 678.752H156.509V680H147.878V678.752H151.587V671.738H148.783V670.49H153.169V678.752ZM151.411 668.645V666.957H153.169V668.645H151.411ZM167.073 675.236C167.073 676.836 166.704 678.061 165.966 678.91C165.233 679.754 164.173 680.176 162.784 680.176C161.425 680.176 160.382 679.748 159.655 678.893C158.935 678.037 158.574 676.818 158.574 675.236C158.574 673.602 158.943 672.374 159.682 671.554C160.426 670.728 161.478 670.314 162.837 670.314C164.267 670.314 165.33 670.722 166.027 671.536C166.725 672.351 167.073 673.584 167.073 675.236ZM165.412 675.236C165.412 673.977 165.21 673.036 164.806 672.415C164.407 671.794 163.76 671.483 162.863 671.483C161.955 671.483 161.29 671.8 160.868 672.433C160.446 673.065 160.235 674 160.235 675.236C160.235 676.467 160.446 677.404 160.868 678.049C161.29 678.688 161.923 679.007 162.767 679.007C163.698 679.007 164.372 678.693 164.788 678.066C165.204 677.439 165.412 676.496 165.412 675.236ZM175.871 680V673.892C175.871 673.095 175.716 672.503 175.405 672.116C175.101 671.729 174.611 671.536 173.938 671.536C173.211 671.536 172.613 671.803 172.145 672.336C171.682 672.863 171.45 673.581 171.45 674.489V680H169.868V672.521C169.868 671.413 169.851 670.736 169.815 670.49H171.31C171.315 670.52 171.321 670.599 171.327 670.728C171.333 670.856 171.339 671.006 171.345 671.176C171.356 671.34 171.368 671.653 171.38 672.116H171.406C172.021 670.915 173.035 670.314 174.447 670.314C175.461 670.314 176.217 670.59 176.715 671.141C177.213 671.686 177.462 672.526 177.462 673.663V680H175.871ZM188.729 679.024C188.882 679.024 189.055 679.004 189.248 678.963V679.947C188.85 680.041 188.442 680.088 188.026 680.088C187.44 680.088 187.013 679.936 186.743 679.631C186.479 679.32 186.33 678.837 186.295 678.181H186.242C185.861 678.89 185.41 679.399 184.889 679.71C184.373 680.021 183.734 680.176 182.973 680.176C182.047 680.176 181.35 679.924 180.881 679.42C180.412 678.916 180.178 678.225 180.178 677.346C180.178 675.301 181.508 674.264 184.168 674.234L186.242 674.199V673.681C186.242 672.913 186.087 672.362 185.776 672.028C185.466 671.688 184.971 671.519 184.291 671.519C183.6 671.519 183.102 671.642 182.797 671.888C182.492 672.134 182.311 672.515 182.252 673.03L180.6 672.881C180.869 671.17 182.108 670.314 184.317 670.314C185.489 670.314 186.368 670.59 186.954 671.141C187.546 671.686 187.842 672.477 187.842 673.514V677.609C187.842 678.078 187.903 678.433 188.026 678.673C188.149 678.907 188.384 679.024 188.729 679.024ZM183.377 678.972C183.939 678.972 184.438 678.837 184.871 678.567C185.305 678.298 185.642 677.938 185.882 677.486C186.122 677.035 186.242 676.569 186.242 676.089V675.307L184.572 675.342C183.881 675.354 183.354 675.43 182.99 675.57C182.627 675.711 182.343 675.928 182.138 676.221C181.938 676.508 181.839 676.892 181.839 677.372C181.839 677.853 181.968 678.239 182.226 678.532C182.489 678.825 182.873 678.972 183.377 678.972ZM196.332 678.752H199.672V680H191.041V678.752H194.75V668.205H192.21V666.957H196.332V678.752ZM14.8994 711L10.6191 705.393L9.18652 706.878V711H7.50781V699.144H9.18652V705.059L14.2139 699.144H16.1914L11.7617 704.171L16.8682 711H14.8994ZM24.5234 711V704.892C24.5234 704.095 24.3682 703.503 24.0576 703.116C23.7529 702.729 23.2637 702.536 22.5898 702.536C21.8633 702.536 21.2656 702.803 20.7969 703.336C20.334 703.863 20.1025 704.581 20.1025 705.489V711H18.5205V703.521C18.5205 702.413 18.5029 701.736 18.4678 701.49H19.9619C19.9678 701.52 19.9736 701.599 19.9795 701.728C19.9854 701.856 19.9912 702.006 19.9971 702.176C20.0088 702.34 20.0205 702.653 20.0322 703.116H20.0586C20.6738 701.915 21.6875 701.314 23.0996 701.314C24.1133 701.314 24.8691 701.59 25.3672 702.141C25.8652 702.686 26.1143 703.526 26.1143 704.663V711H24.5234ZM37.3467 706.236C37.3467 707.836 36.9775 709.061 36.2393 709.91C35.5068 710.754 34.4463 711.176 33.0576 711.176C31.6982 711.176 30.6553 710.748 29.9287 709.893C29.208 709.037 28.8477 707.818 28.8477 706.236C28.8477 704.602 29.2168 703.374 29.9551 702.554C30.6992 701.728 31.751 701.314 33.1104 701.314C34.54 701.314 35.6035 701.722 36.3008 702.536C36.998 703.351 37.3467 704.584 37.3467 706.236ZM35.6855 706.236C35.6855 704.977 35.4834 704.036 35.0791 703.415C34.6807 702.794 34.0332 702.483 33.1367 702.483C32.2285 702.483 31.5635 702.8 31.1416 703.433C30.7197 704.065 30.5088 705 30.5088 706.236C30.5088 707.467 30.7197 708.404 31.1416 709.049C31.5635 709.688 32.1963 710.007 33.04 710.007C33.9717 710.007 34.6455 709.693 35.0615 709.066C35.4775 708.439 35.6855 707.496 35.6855 706.236ZM47.4629 711H45.6699L44.4131 706.86L43.9121 705.085L43.5693 706.307L42.0928 711H40.3086L38.7002 701.49H40.2646L41.082 706.825C41.2754 708.372 41.3721 709.327 41.3721 709.69C41.6006 708.753 41.7705 708.126 41.8818 707.81L43.0684 704.083H44.7646L45.9072 707.818C46.0947 708.434 46.2559 709.058 46.3906 709.69C46.3906 709.515 46.4023 709.295 46.4258 709.031C46.4492 708.768 46.4785 708.498 46.5137 708.223C46.5488 707.941 46.584 707.675 46.6191 707.423C46.6543 707.171 46.6807 706.972 46.6982 706.825L47.5859 701.49H49.1328L47.4629 711ZM55.7949 709.752H59.1348V711H50.5039V709.752H54.2129V699.205H51.6729V697.957H55.7949V709.752ZM62.9668 706.579C62.9668 707.646 63.2012 708.48 63.6699 709.084C64.1445 709.688 64.792 709.989 65.6123 709.989C66.2158 709.989 66.7432 709.86 67.1943 709.603C67.6514 709.339 67.9561 708.981 68.1084 708.53L69.4971 708.926C69.2393 709.652 68.7646 710.209 68.0732 710.596C67.3877 710.982 66.5674 711.176 65.6123 711.176C64.2295 711.176 63.166 710.745 62.4219 709.884C61.6777 709.022 61.3057 707.789 61.3057 706.184C61.3057 704.619 61.6689 703.418 62.3955 702.58C63.1279 701.736 64.1826 701.314 65.5596 701.314C66.9365 701.314 67.9795 701.733 68.6885 702.571C69.3975 703.409 69.752 704.675 69.752 706.368V706.579H62.9668ZM65.5771 702.483C64.792 702.483 64.1709 702.741 63.7139 703.257C63.2568 703.767 63.0137 704.47 62.9844 705.366H68.1172C67.9531 703.444 67.1064 702.483 65.5771 702.483ZM78.5234 709.471C78.2363 710.086 77.8555 710.534 77.3809 710.815C76.9062 711.091 76.3145 711.229 75.6055 711.229C74.4219 711.229 73.5518 710.821 72.9951 710.007C72.4385 709.192 72.1602 707.965 72.1602 706.324C72.1602 703.008 73.3086 701.35 75.6055 701.35C76.3145 701.35 76.9062 701.476 77.3809 701.728C77.8613 701.979 78.2451 702.393 78.5322 702.967H78.5498L78.5322 701.64V697.957H80.1143V709.04C80.1143 710.03 80.1318 710.684 80.167 711H78.6553C78.6318 710.912 78.6113 710.698 78.5938 710.358C78.5762 710.019 78.5674 709.723 78.5674 709.471H78.5234ZM73.7949 706.271C73.7949 707.572 73.9678 708.521 74.3135 709.119C74.665 709.711 75.2334 710.007 76.0186 710.007C76.874 710.007 77.5068 709.699 77.917 709.084C78.3271 708.463 78.5322 707.479 78.5322 706.131C78.5322 704.871 78.333 703.954 77.9346 703.38C77.542 702.806 76.9092 702.519 76.0361 702.519C75.2451 702.519 74.6738 702.82 74.3223 703.424C73.9707 704.027 73.7949 704.977 73.7949 706.271ZM87.1631 714.727C86.1787 714.727 85.3877 714.524 84.79 714.12C84.1924 713.716 83.8115 713.136 83.6475 712.38L85.2646 712.16C85.3643 712.6 85.5781 712.937 85.9062 713.171C86.2402 713.411 86.6768 713.531 87.2158 713.531C88.6689 713.531 89.3955 712.608 89.3955 710.763V709.058H89.3779C89.0908 709.661 88.6924 710.118 88.1826 710.429C87.6729 710.739 87.0664 710.895 86.3633 710.895C85.2031 710.895 84.3535 710.517 83.8145 709.761C83.2812 708.999 83.0146 707.804 83.0146 706.175C83.0146 704.517 83.3018 703.298 83.876 702.519C84.4502 701.733 85.335 701.341 86.5303 701.341C87.1924 701.341 87.7666 701.496 88.2529 701.807C88.7451 702.111 89.123 702.548 89.3867 703.116H89.4131C89.4131 702.94 89.4248 702.645 89.4482 702.229C89.4717 701.807 89.4951 701.561 89.5186 701.49H91.0215C90.9863 701.807 90.9688 702.463 90.9688 703.459V710.719C90.9688 712.049 90.6582 713.048 90.0371 713.716C89.416 714.39 88.458 714.727 87.1631 714.727ZM89.3955 706.157C89.3955 705.026 89.1758 704.139 88.7363 703.494C88.2969 702.844 87.6934 702.519 86.9258 702.519C86.123 702.519 85.543 702.8 85.1855 703.362C84.8281 703.919 84.6494 704.851 84.6494 706.157C84.6494 707.042 84.7227 707.742 84.8691 708.258C85.0215 708.768 85.2559 709.14 85.5723 709.374C85.8887 709.608 86.3311 709.726 86.8994 709.726C87.3975 709.726 87.834 709.588 88.209 709.312C88.5898 709.031 88.8828 708.624 89.0879 708.091C89.293 707.552 89.3955 706.907 89.3955 706.157ZM95.3984 706.579C95.3984 707.646 95.6328 708.48 96.1016 709.084C96.5762 709.688 97.2236 709.989 98.0439 709.989C98.6475 709.989 99.1748 709.86 99.626 709.603C100.083 709.339 100.388 708.981 100.54 708.53L101.929 708.926C101.671 709.652 101.196 710.209 100.505 710.596C99.8193 710.982 98.999 711.176 98.0439 711.176C96.6611 711.176 95.5977 710.745 94.8535 709.884C94.1094 709.022 93.7373 707.789 93.7373 706.184C93.7373 704.619 94.1006 703.418 94.8271 702.58C95.5596 701.736 96.6143 701.314 97.9912 701.314C99.3682 701.314 100.411 701.733 101.12 702.571C101.829 703.409 102.184 704.675 102.184 706.368V706.579H95.3984ZM98.0088 702.483C97.2236 702.483 96.6025 702.741 96.1455 703.257C95.6885 703.767 95.4453 704.47 95.416 705.366H100.549C100.385 703.444 99.5381 702.483 98.0088 702.483ZM123.866 710.024C124.019 710.024 124.191 710.004 124.385 709.963V710.947C123.986 711.041 123.579 711.088 123.163 711.088C122.577 711.088 122.149 710.936 121.88 710.631C121.616 710.32 121.467 709.837 121.432 709.181H121.379C120.998 709.89 120.547 710.399 120.025 710.71C119.51 711.021 118.871 711.176 118.109 711.176C117.184 711.176 116.486 710.924 116.018 710.42C115.549 709.916 115.314 709.225 115.314 708.346C115.314 706.301 116.645 705.264 119.305 705.234L121.379 705.199V704.681C121.379 703.913 121.224 703.362 120.913 703.028C120.603 702.688 120.107 702.519 119.428 702.519C118.736 702.519 118.238 702.642 117.934 702.888C117.629 703.134 117.447 703.515 117.389 704.03L115.736 703.881C116.006 702.17 117.245 701.314 119.454 701.314C120.626 701.314 121.505 701.59 122.091 702.141C122.683 702.686 122.979 703.477 122.979 704.514V708.609C122.979 709.078 123.04 709.433 123.163 709.673C123.286 709.907 123.521 710.024 123.866 710.024ZM118.514 709.972C119.076 709.972 119.574 709.837 120.008 709.567C120.441 709.298 120.778 708.938 121.019 708.486C121.259 708.035 121.379 707.569 121.379 707.089V706.307L119.709 706.342C119.018 706.354 118.49 706.43 118.127 706.57C117.764 706.711 117.479 706.928 117.274 707.221C117.075 707.508 116.976 707.892 116.976 708.372C116.976 708.853 117.104 709.239 117.362 709.532C117.626 709.825 118.01 709.972 118.514 709.972ZM132.629 711V704.892C132.629 704.095 132.474 703.503 132.163 703.116C131.858 702.729 131.369 702.536 130.695 702.536C129.969 702.536 129.371 702.803 128.902 703.336C128.439 703.863 128.208 704.581 128.208 705.489V711H126.626V703.521C126.626 702.413 126.608 701.736 126.573 701.49H128.067C128.073 701.52 128.079 701.599 128.085 701.728C128.091 701.856 128.097 702.006 128.103 702.176C128.114 702.34 128.126 702.653 128.138 703.116H128.164C128.779 701.915 129.793 701.314 131.205 701.314C132.219 701.314 132.975 701.59 133.473 702.141C133.971 702.686 134.22 703.526 134.22 704.663V711H132.629ZM143.387 709.471C143.1 710.086 142.719 710.534 142.244 710.815C141.77 711.091 141.178 711.229 140.469 711.229C139.285 711.229 138.415 710.821 137.858 710.007C137.302 709.192 137.023 707.965 137.023 706.324C137.023 703.008 138.172 701.35 140.469 701.35C141.178 701.35 141.77 701.476 142.244 701.728C142.725 701.979 143.108 702.393 143.396 702.967H143.413L143.396 701.64V697.957H144.978V709.04C144.978 710.03 144.995 710.684 145.03 711H143.519C143.495 710.912 143.475 710.698 143.457 710.358C143.439 710.019 143.431 709.723 143.431 709.471H143.387ZM138.658 706.271C138.658 707.572 138.831 708.521 139.177 709.119C139.528 709.711 140.097 710.007 140.882 710.007C141.737 710.007 142.37 709.699 142.78 709.084C143.19 708.463 143.396 707.479 143.396 706.131C143.396 704.871 143.196 703.954 142.798 703.38C142.405 702.806 141.772 702.519 140.899 702.519C140.108 702.519 139.537 702.82 139.186 703.424C138.834 704.027 138.658 704.977 138.658 706.271ZM167.557 707.66C167.557 708.715 167.155 709.535 166.353 710.121C165.55 710.707 164.434 711 163.004 711H158.855V699.144H162.477C165.383 699.144 166.836 700.102 166.836 702.018C166.836 702.732 166.625 703.33 166.203 703.811C165.781 704.291 165.207 704.604 164.48 704.751C165.459 704.856 166.215 705.17 166.748 705.691C167.287 706.213 167.557 706.869 167.557 707.66ZM165.148 702.229C165.148 701.602 164.926 701.156 164.48 700.893C164.041 700.623 163.379 700.488 162.494 700.488H160.534V704.145H162.512C164.27 704.145 165.148 703.506 165.148 702.229ZM165.86 707.511C165.86 706.843 165.6 706.333 165.078 705.981C164.557 705.63 163.78 705.454 162.749 705.454H160.534V709.655H162.872C163.897 709.655 164.65 709.479 165.131 709.128C165.617 708.771 165.86 708.231 165.86 707.511ZM177.427 702.932C176.771 702.82 176.149 702.765 175.563 702.765C174.62 702.765 173.858 703.119 173.278 703.828C172.698 704.537 172.408 705.439 172.408 706.535V711H170.826V704.839C170.826 704.394 170.785 703.869 170.703 703.266C170.627 702.662 170.516 702.07 170.369 701.49H171.872C172.106 702.299 172.247 703.031 172.294 703.688H172.338C172.631 703.031 172.918 702.551 173.199 702.246C173.48 701.936 173.814 701.704 174.201 701.552C174.588 701.394 175.06 701.314 175.616 701.314C176.226 701.314 176.829 701.364 177.427 701.464V702.932ZM188.729 710.024C188.882 710.024 189.055 710.004 189.248 709.963V710.947C188.85 711.041 188.442 711.088 188.026 711.088C187.44 711.088 187.013 710.936 186.743 710.631C186.479 710.32 186.33 709.837 186.295 709.181H186.242C185.861 709.89 185.41 710.399 184.889 710.71C184.373 711.021 183.734 711.176 182.973 711.176C182.047 711.176 181.35 710.924 180.881 710.42C180.412 709.916 180.178 709.225 180.178 708.346C180.178 706.301 181.508 705.264 184.168 705.234L186.242 705.199V704.681C186.242 703.913 186.087 703.362 185.776 703.028C185.466 702.688 184.971 702.519 184.291 702.519C183.6 702.519 183.102 702.642 182.797 702.888C182.492 703.134 182.311 703.515 182.252 704.03L180.6 703.881C180.869 702.17 182.108 701.314 184.317 701.314C185.489 701.314 186.368 701.59 186.954 702.141C187.546 702.686 187.842 703.477 187.842 704.514V708.609C187.842 709.078 187.903 709.433 188.026 709.673C188.149 709.907 188.384 710.024 188.729 710.024ZM183.377 709.972C183.939 709.972 184.438 709.837 184.871 709.567C185.305 709.298 185.642 708.938 185.882 708.486C186.122 708.035 186.242 707.569 186.242 707.089V706.307L184.572 706.342C183.881 706.354 183.354 706.43 182.99 706.57C182.627 706.711 182.343 706.928 182.138 707.221C181.938 707.508 181.839 707.892 181.839 708.372C181.839 708.853 181.968 709.239 182.226 709.532C182.489 709.825 182.873 709.972 183.377 709.972ZM197.492 711V704.892C197.492 704.095 197.337 703.503 197.026 703.116C196.722 702.729 196.232 702.536 195.559 702.536C194.832 702.536 194.234 702.803 193.766 703.336C193.303 703.863 193.071 704.581 193.071 705.489V711H191.489V703.521C191.489 702.413 191.472 701.736 191.437 701.49H192.931C192.937 701.52 192.942 701.599 192.948 701.728C192.954 701.856 192.96 702.006 192.966 702.176C192.978 702.34 192.989 702.653 193.001 703.116H193.027C193.643 701.915 194.656 701.314 196.068 701.314C197.082 701.314 197.838 701.59 198.336 702.141C198.834 702.686 199.083 703.526 199.083 704.663V711H197.492ZM208.25 709.471C207.963 710.086 207.582 710.534 207.107 710.815C206.633 711.091 206.041 711.229 205.332 711.229C204.148 711.229 203.278 710.821 202.722 710.007C202.165 709.192 201.887 707.965 201.887 706.324C201.887 703.008 203.035 701.35 205.332 701.35C206.041 701.35 206.633 701.476 207.107 701.728C207.588 701.979 207.972 702.393 208.259 702.967H208.276L208.259 701.64V697.957H209.841V709.04C209.841 710.03 209.858 710.684 209.894 711H208.382C208.358 710.912 208.338 710.698 208.32 710.358C208.303 710.019 208.294 709.723 208.294 709.471H208.25ZM203.521 706.271C203.521 707.572 203.694 708.521 204.04 709.119C204.392 709.711 204.96 710.007 205.745 710.007C206.601 710.007 207.233 709.699 207.644 709.084C208.054 708.463 208.259 707.479 208.259 706.131C208.259 704.871 208.06 703.954 207.661 703.38C207.269 702.806 206.636 702.519 205.763 702.519C204.972 702.519 204.4 702.82 204.049 703.424C203.697 704.027 203.521 704.977 203.521 706.271ZM218.032 709.752H221.372V711H212.741V709.752H216.45V702.738H213.646V701.49H218.032V709.752ZM216.274 699.645V697.957H218.032V699.645H216.274ZM229.924 711V704.892C229.924 704.095 229.769 703.503 229.458 703.116C229.153 702.729 228.664 702.536 227.99 702.536C227.264 702.536 226.666 702.803 226.197 703.336C225.734 703.863 225.503 704.581 225.503 705.489V711H223.921V703.521C223.921 702.413 223.903 701.736 223.868 701.49H225.362C225.368 701.52 225.374 701.599 225.38 701.728C225.386 701.856 225.392 702.006 225.397 702.176C225.409 702.34 225.421 702.653 225.433 703.116H225.459C226.074 701.915 227.088 701.314 228.5 701.314C229.514 701.314 230.27 701.59 230.768 702.141C231.266 702.686 231.515 703.526 231.515 704.663V711H229.924ZM238.511 714.727C237.526 714.727 236.735 714.524 236.138 714.12C235.54 713.716 235.159 713.136 234.995 712.38L236.612 712.16C236.712 712.6 236.926 712.937 237.254 713.171C237.588 713.411 238.024 713.531 238.563 713.531C240.017 713.531 240.743 712.608 240.743 710.763V709.058H240.726C240.438 709.661 240.04 710.118 239.53 710.429C239.021 710.739 238.414 710.895 237.711 710.895C236.551 710.895 235.701 710.517 235.162 709.761C234.629 708.999 234.362 707.804 234.362 706.175C234.362 704.517 234.649 703.298 235.224 702.519C235.798 701.733 236.683 701.341 237.878 701.341C238.54 701.341 239.114 701.496 239.601 701.807C240.093 702.111 240.471 702.548 240.734 703.116H240.761C240.761 702.94 240.772 702.645 240.796 702.229C240.819 701.807 240.843 701.561 240.866 701.49H242.369C242.334 701.807 242.316 702.463 242.316 703.459V710.719C242.316 712.049 242.006 713.048 241.385 713.716C240.764 714.39 239.806 714.727 238.511 714.727ZM240.743 706.157C240.743 705.026 240.523 704.139 240.084 703.494C239.645 702.844 239.041 702.519 238.273 702.519C237.471 702.519 236.891 702.8 236.533 703.362C236.176 703.919 235.997 704.851 235.997 706.157C235.997 707.042 236.07 707.742 236.217 708.258C236.369 708.768 236.604 709.14 236.92 709.374C237.236 709.608 237.679 709.726 238.247 709.726C238.745 709.726 239.182 709.588 239.557 709.312C239.938 709.031 240.23 708.624 240.436 708.091C240.641 707.552 240.743 706.907 240.743 706.157Z" fill="white"/>
<path d="M11.3037 239.66C11.3037 240.715 10.9023 241.535 10.0996 242.121C9.29688 242.707 8.18066 243 6.75098 243H2.60254V231.144H6.22363C9.12988 231.144 10.583 232.102 10.583 234.018C10.583 234.732 10.3721 235.33 9.9502 235.811C9.52832 236.291 8.9541 236.604 8.22754 236.751C9.20605 236.856 9.96191 237.17 10.4951 237.691C11.0342 238.213 11.3037 238.869 11.3037 239.66ZM8.89551 234.229C8.89551 233.602 8.67285 233.156 8.22754 232.893C7.78809 232.623 7.12598 232.488 6.24121 232.488H4.28125V236.145H6.25879C8.0166 236.145 8.89551 235.506 8.89551 234.229ZM9.60742 239.511C9.60742 238.843 9.34668 238.333 8.8252 237.981C8.30371 237.63 7.52734 237.454 6.49609 237.454H4.28125V241.655H6.61914C7.64453 241.655 8.39746 241.479 8.87793 241.128C9.36426 240.771 9.60742 240.231 9.60742 239.511ZM14.8193 238.579C14.8193 239.646 15.0537 240.48 15.5225 241.084C15.9971 241.688 16.6445 241.989 17.4648 241.989C18.0684 241.989 18.5957 241.86 19.0469 241.603C19.5039 241.339 19.8086 240.981 19.9609 240.53L21.3496 240.926C21.0918 241.652 20.6172 242.209 19.9258 242.596C19.2402 242.982 18.4199 243.176 17.4648 243.176C16.082 243.176 15.0186 242.745 14.2744 241.884C13.5303 241.022 13.1582 239.789 13.1582 238.184C13.1582 236.619 13.5215 235.418 14.248 234.58C14.9805 233.736 16.0352 233.314 17.4121 233.314C18.7891 233.314 19.832 233.733 20.541 234.571C21.25 235.409 21.6045 236.675 21.6045 238.368V238.579H14.8193ZM17.4297 234.483C16.6445 234.483 16.0234 234.741 15.5664 235.257C15.1094 235.767 14.8662 236.47 14.8369 237.366H19.9697C19.8057 235.444 18.959 234.483 17.4297 234.483ZM32.1162 240.284C32.1162 241.187 31.7734 241.896 31.0879 242.411C30.4082 242.921 29.4648 243.176 28.2578 243.176C27.0508 243.176 26.1309 242.988 25.498 242.613C24.8711 242.232 24.4609 241.635 24.2676 240.82L25.665 240.548C25.7764 241.052 26.0137 241.421 26.377 241.655C26.7461 241.884 27.373 241.998 28.2578 241.998C29.8398 241.998 30.6309 241.497 30.6309 240.495C30.6309 240.12 30.4873 239.818 30.2002 239.59C29.9131 239.355 29.4736 239.165 28.8818 239.019C27.335 238.638 26.3535 238.339 25.9375 238.122C25.5215 237.905 25.2021 237.636 24.9795 237.313C24.7568 236.985 24.6455 236.578 24.6455 236.092C24.6455 235.23 24.9561 234.557 25.5771 234.07C26.1982 233.584 27.0977 233.341 28.2754 233.341C29.3066 233.341 30.1299 233.537 30.7451 233.93C31.3604 234.316 31.7441 234.882 31.8965 235.626L30.4727 235.802C30.4082 235.38 30.2002 235.061 29.8486 234.844C29.4971 234.627 28.9727 234.519 28.2754 234.519C26.8398 234.519 26.1221 234.961 26.1221 235.846C26.1221 236.197 26.2422 236.479 26.4824 236.689C26.7285 236.9 27.1211 237.07 27.6602 237.199L28.7061 237.472C29.6611 237.706 30.3467 237.938 30.7627 238.166C31.1846 238.395 31.5156 238.682 31.7559 239.027C31.9961 239.367 32.1162 239.786 32.1162 240.284ZM35.2803 234.738V233.49H36.7744L37.2842 231.012H38.3389V233.49H42.1357V234.738H38.3389V240.469C38.3389 240.932 38.4619 241.274 38.708 241.497C38.96 241.72 39.3701 241.831 39.9385 241.831C40.7236 241.831 41.5938 241.731 42.5488 241.532V242.736C41.5586 243.006 40.5771 243.141 39.6045 243.141C38.6553 243.141 37.9434 242.941 37.4688 242.543C36.9941 242.139 36.7568 241.503 36.7568 240.636V234.738H35.2803ZM65.0664 234.694C65.0664 235.427 64.8906 236.08 64.5391 236.654C64.1934 237.229 63.6953 237.677 63.0449 237.999C62.4004 238.321 61.6533 238.482 60.8037 238.482H58.334V243H56.6553V231.144H60.6982C62.0928 231.144 63.168 231.457 63.9238 232.084C64.6855 232.705 65.0664 233.575 65.0664 234.694ZM63.3789 234.721C63.3789 233.232 62.418 232.488 60.4961 232.488H58.334V237.155H60.5664C61.4395 237.155 62.125 236.941 62.623 236.514C63.127 236.086 63.3789 235.488 63.3789 234.721ZM75.2266 234.932C74.5703 234.82 73.9492 234.765 73.3633 234.765C72.4199 234.765 71.6582 235.119 71.0781 235.828C70.498 236.537 70.208 237.439 70.208 238.535V243H68.626V236.839C68.626 236.394 68.585 235.869 68.5029 235.266C68.4268 234.662 68.3154 234.07 68.1689 233.49H69.6719C69.9062 234.299 70.0469 235.031 70.0938 235.688H70.1377C70.4307 235.031 70.7178 234.551 70.999 234.246C71.2803 233.936 71.6143 233.704 72.001 233.552C72.3877 233.394 72.8594 233.314 73.416 233.314C74.0254 233.314 74.6289 233.364 75.2266 233.464V234.932ZM86.5293 242.024C86.6816 242.024 86.8545 242.004 87.0479 241.963V242.947C86.6494 243.041 86.2422 243.088 85.8262 243.088C85.2402 243.088 84.8125 242.936 84.543 242.631C84.2793 242.32 84.1299 241.837 84.0947 241.181H84.042C83.6611 241.89 83.21 242.399 82.6885 242.71C82.1729 243.021 81.5342 243.176 80.7725 243.176C79.8467 243.176 79.1494 242.924 78.6807 242.42C78.2119 241.916 77.9775 241.225 77.9775 240.346C77.9775 238.301 79.3076 237.264 81.9678 237.234L84.042 237.199V236.681C84.042 235.913 83.8867 235.362 83.5762 235.028C83.2656 234.688 82.7705 234.519 82.0908 234.519C81.3994 234.519 80.9014 234.642 80.5967 234.888C80.292 235.134 80.1104 235.515 80.0518 236.03L78.3994 235.881C78.6689 234.17 79.9082 233.314 82.1172 233.314C83.2891 233.314 84.168 233.59 84.7539 234.141C85.3457 234.686 85.6416 235.477 85.6416 236.514V240.609C85.6416 241.078 85.7031 241.433 85.8262 241.673C85.9492 241.907 86.1836 242.024 86.5293 242.024ZM81.1768 241.972C81.7393 241.972 82.2373 241.837 82.6709 241.567C83.1045 241.298 83.4414 240.938 83.6816 240.486C83.9219 240.035 84.042 239.569 84.042 239.089V238.307L82.3721 238.342C81.6807 238.354 81.1533 238.43 80.79 238.57C80.4268 238.711 80.1426 238.928 79.9375 239.221C79.7383 239.508 79.6387 239.892 79.6387 240.372C79.6387 240.853 79.7676 241.239 80.0254 241.532C80.2891 241.825 80.6729 241.972 81.1768 241.972ZM88.8057 238.236C88.8057 236.654 89.1836 235.438 89.9395 234.589C90.6953 233.739 91.7881 233.314 93.2178 233.314C94.2842 233.314 95.1631 233.572 95.8545 234.088C96.5459 234.598 96.9736 235.286 97.1377 236.153L95.4502 236.276C95.3564 235.743 95.1221 235.324 94.7471 235.02C94.3721 234.709 93.8389 234.554 93.1475 234.554C92.2217 234.554 91.542 234.841 91.1084 235.415C90.6807 235.989 90.4668 236.918 90.4668 238.201C90.4668 239.502 90.6807 240.454 91.1084 241.058C91.542 241.655 92.2188 241.954 93.1387 241.954C93.7715 241.954 94.2959 241.799 94.7119 241.488C95.1279 241.178 95.3857 240.703 95.4854 240.064L97.1553 240.17C97.0791 240.732 96.8652 241.245 96.5137 241.708C96.168 242.165 95.708 242.525 95.1338 242.789C94.5596 243.047 93.918 243.176 93.209 243.176C91.7734 243.176 90.6807 242.754 89.9307 241.91C89.1807 241.066 88.8057 239.842 88.8057 238.236ZM100.144 234.738V233.49H101.638L102.147 231.012H103.202V233.49H106.999V234.738H103.202V240.469C103.202 240.932 103.325 241.274 103.571 241.497C103.823 241.72 104.233 241.831 104.802 241.831C105.587 241.831 106.457 241.731 107.412 241.532V242.736C106.422 243.006 105.44 243.141 104.468 243.141C103.519 243.141 102.807 242.941 102.332 242.543C101.857 242.139 101.62 241.503 101.62 240.636V234.738H100.144ZM115.832 241.752H119.172V243H110.541V241.752H114.25V234.738H111.446V233.49H115.832V241.752ZM114.074 231.645V229.957H115.832V231.645H114.074ZM121.237 238.236C121.237 236.654 121.615 235.438 122.371 234.589C123.127 233.739 124.22 233.314 125.649 233.314C126.716 233.314 127.595 233.572 128.286 234.088C128.978 234.598 129.405 235.286 129.569 236.153L127.882 236.276C127.788 235.743 127.554 235.324 127.179 235.02C126.804 234.709 126.271 234.554 125.579 234.554C124.653 234.554 123.974 234.841 123.54 235.415C123.112 235.989 122.898 236.918 122.898 238.201C122.898 239.502 123.112 240.454 123.54 241.058C123.974 241.655 124.65 241.954 125.57 241.954C126.203 241.954 126.728 241.799 127.144 241.488C127.56 241.178 127.817 240.703 127.917 240.064L129.587 240.17C129.511 240.732 129.297 241.245 128.945 241.708C128.6 242.165 128.14 242.525 127.565 242.789C126.991 243.047 126.35 243.176 125.641 243.176C124.205 243.176 123.112 242.754 122.362 241.91C121.612 241.066 121.237 239.842 121.237 238.236ZM133.735 238.579C133.735 239.646 133.97 240.48 134.438 241.084C134.913 241.688 135.561 241.989 136.381 241.989C136.984 241.989 137.512 241.86 137.963 241.603C138.42 241.339 138.725 240.981 138.877 240.53L140.266 240.926C140.008 241.652 139.533 242.209 138.842 242.596C138.156 242.982 137.336 243.176 136.381 243.176C134.998 243.176 133.935 242.745 133.19 241.884C132.446 241.022 132.074 239.789 132.074 238.184C132.074 236.619 132.438 235.418 133.164 234.58C133.896 233.736 134.951 233.314 136.328 233.314C137.705 233.314 138.748 233.733 139.457 234.571C140.166 235.409 140.521 236.675 140.521 238.368V238.579H133.735ZM136.346 234.483C135.561 234.483 134.939 234.741 134.482 235.257C134.025 235.767 133.782 236.47 133.753 237.366H138.886C138.722 235.444 137.875 234.483 136.346 234.483ZM162.361 234.694C162.361 235.427 162.186 236.08 161.834 236.654C161.488 237.229 160.99 237.677 160.34 237.999C159.695 238.321 158.948 238.482 158.099 238.482H155.629V243H153.95V231.144H157.993C159.388 231.144 160.463 231.457 161.219 232.084C161.98 232.705 162.361 233.575 162.361 234.694ZM160.674 234.721C160.674 233.232 159.713 232.488 157.791 232.488H155.629V237.155H157.861C158.734 237.155 159.42 236.941 159.918 236.514C160.422 236.086 160.674 235.488 160.674 234.721ZM172.521 234.932C171.865 234.82 171.244 234.765 170.658 234.765C169.715 234.765 168.953 235.119 168.373 235.828C167.793 236.537 167.503 237.439 167.503 238.535V243H165.921V236.839C165.921 236.394 165.88 235.869 165.798 235.266C165.722 234.662 165.61 234.07 165.464 233.49H166.967C167.201 234.299 167.342 235.031 167.389 235.688H167.433C167.726 235.031 168.013 234.551 168.294 234.246C168.575 233.936 168.909 233.704 169.296 233.552C169.683 233.394 170.154 233.314 170.711 233.314C171.32 233.314 171.924 233.364 172.521 233.464V234.932ZM183.789 238.236C183.789 239.836 183.42 241.061 182.682 241.91C181.949 242.754 180.889 243.176 179.5 243.176C178.141 243.176 177.098 242.748 176.371 241.893C175.65 241.037 175.29 239.818 175.29 238.236C175.29 236.602 175.659 235.374 176.397 234.554C177.142 233.728 178.193 233.314 179.553 233.314C180.982 233.314 182.046 233.722 182.743 234.536C183.44 235.351 183.789 236.584 183.789 238.236ZM182.128 238.236C182.128 236.977 181.926 236.036 181.521 235.415C181.123 234.794 180.476 234.483 179.579 234.483C178.671 234.483 178.006 234.8 177.584 235.433C177.162 236.065 176.951 237 176.951 238.236C176.951 239.467 177.162 240.404 177.584 241.049C178.006 241.688 178.639 242.007 179.482 242.007C180.414 242.007 181.088 241.693 181.504 241.066C181.92 240.439 182.128 239.496 182.128 238.236ZM189.625 243V236.971C189.625 236.068 189.552 235.438 189.405 235.081C189.265 234.718 189.004 234.536 188.623 234.536C188.248 234.536 187.943 234.817 187.709 235.38C187.48 235.942 187.366 236.704 187.366 237.665V243H185.881V235.521C185.881 234.413 185.863 233.736 185.828 233.49H187.138L187.19 234.606V235.028H187.208C187.407 234.431 187.659 233.997 187.964 233.728C188.269 233.452 188.649 233.314 189.106 233.314C189.622 233.314 190.006 233.455 190.258 233.736C190.516 234.018 190.7 234.451 190.812 235.037H190.829C191.063 234.416 191.342 233.974 191.664 233.71C191.992 233.446 192.405 233.314 192.903 233.314C193.595 233.314 194.09 233.566 194.389 234.07C194.688 234.574 194.837 235.438 194.837 236.663V243H193.36V236.971C193.36 236.068 193.287 235.438 193.141 235.081C193 234.718 192.739 234.536 192.358 234.536C191.972 234.536 191.664 234.782 191.436 235.274C191.213 235.767 191.102 236.505 191.102 237.489V243H189.625ZM205.349 238.201C205.349 241.518 204.2 243.176 201.903 243.176C200.462 243.176 199.492 242.637 198.994 241.559H198.95C198.974 241.605 198.985 242.092 198.985 243.018V246.735H197.395V235.459C197.395 234.463 197.377 233.807 197.342 233.49H198.88C198.886 233.514 198.895 233.602 198.906 233.754C198.918 233.9 198.93 234.12 198.941 234.413C198.959 234.7 198.968 234.914 198.968 235.055H199.003C199.296 234.439 199.668 233.994 200.119 233.719C200.576 233.438 201.171 233.297 201.903 233.297C203.063 233.297 203.928 233.698 204.496 234.501C205.064 235.298 205.349 236.531 205.349 238.201ZM203.714 238.201C203.714 236.877 203.535 235.934 203.178 235.371C202.82 234.803 202.258 234.519 201.49 234.519C200.605 234.519 199.967 234.841 199.574 235.485C199.182 236.124 198.985 237.094 198.985 238.395C198.985 239.643 199.182 240.557 199.574 241.137C199.967 241.717 200.6 242.007 201.473 242.007C202.252 242.007 202.82 241.711 203.178 241.119C203.535 240.527 203.714 239.555 203.714 238.201ZM208.249 234.738V233.49H209.743L210.253 231.012H211.308V233.49H215.104V234.738H211.308V240.469C211.308 240.932 211.431 241.274 211.677 241.497C211.929 241.72 212.339 241.831 212.907 241.831C213.692 241.831 214.562 241.731 215.518 241.532V242.736C214.527 243.006 213.546 243.141 212.573 243.141C211.624 243.141 210.912 242.941 210.438 242.543C209.963 242.139 209.726 241.503 209.726 240.636V234.738H208.249ZM223.938 241.752H227.277V243H218.646V241.752H222.355V234.738H219.552V233.49H223.938V241.752ZM222.18 231.645V229.957H223.938V231.645H222.18ZM235.829 243V236.892C235.829 236.095 235.674 235.503 235.363 235.116C235.059 234.729 234.569 234.536 233.896 234.536C233.169 234.536 232.571 234.803 232.103 235.336C231.64 235.863 231.408 236.581 231.408 237.489V243H229.826V235.521C229.826 234.413 229.809 233.736 229.773 233.49H231.268C231.273 233.52 231.279 233.599 231.285 233.728C231.291 233.856 231.297 234.006 231.303 234.176C231.314 234.34 231.326 234.653 231.338 235.116H231.364C231.979 233.915 232.993 233.314 234.405 233.314C235.419 233.314 236.175 233.59 236.673 234.141C237.171 234.686 237.42 235.526 237.42 236.663V243H235.829ZM244.416 246.727C243.432 246.727 242.641 246.524 242.043 246.12C241.445 245.716 241.064 245.136 240.9 244.38L242.518 244.16C242.617 244.6 242.831 244.937 243.159 245.171C243.493 245.411 243.93 245.531 244.469 245.531C245.922 245.531 246.648 244.608 246.648 242.763V241.058H246.631C246.344 241.661 245.945 242.118 245.436 242.429C244.926 242.739 244.319 242.895 243.616 242.895C242.456 242.895 241.606 242.517 241.067 241.761C240.534 240.999 240.268 239.804 240.268 238.175C240.268 236.517 240.555 235.298 241.129 234.519C241.703 233.733 242.588 233.341 243.783 233.341C244.445 233.341 245.02 233.496 245.506 233.807C245.998 234.111 246.376 234.548 246.64 235.116H246.666C246.666 234.94 246.678 234.645 246.701 234.229C246.725 233.807 246.748 233.561 246.771 233.49H248.274C248.239 233.807 248.222 234.463 248.222 235.459V242.719C248.222 244.049 247.911 245.048 247.29 245.716C246.669 246.39 245.711 246.727 244.416 246.727ZM246.648 238.157C246.648 237.026 246.429 236.139 245.989 235.494C245.55 234.844 244.946 234.519 244.179 234.519C243.376 234.519 242.796 234.8 242.438 235.362C242.081 235.919 241.902 236.851 241.902 238.157C241.902 239.042 241.976 239.742 242.122 240.258C242.274 240.768 242.509 241.14 242.825 241.374C243.142 241.608 243.584 241.726 244.152 241.726C244.65 241.726 245.087 241.588 245.462 241.312C245.843 241.031 246.136 240.624 246.341 240.091C246.546 239.552 246.648 238.907 246.648 238.157Z" fill="white"/>
<path d="M833.87 674.015C833.87 675.614 834.119 676.815 834.617 677.618C835.121 678.415 835.889 678.813 836.92 678.813C837.512 678.813 838.048 678.614 838.528 678.216C839.009 677.812 839.416 677.185 839.75 676.335L841.147 676.906C840.274 679.086 838.859 680.176 836.902 680.176C835.361 680.176 834.175 679.646 833.343 678.585C832.517 677.524 832.104 676.001 832.104 674.015C832.104 669.978 833.674 667.959 836.814 667.959C838.801 667.959 840.166 668.94 840.91 670.903L839.434 671.475C839.217 670.812 838.877 670.291 838.414 669.91C837.957 669.523 837.427 669.33 836.823 669.33C835.821 669.33 835.077 669.708 834.591 670.464C834.11 671.22 833.87 672.403 833.87 674.015ZM851.562 675.236C851.562 676.836 851.193 678.061 850.455 678.91C849.723 679.754 848.662 680.176 847.273 680.176C845.914 680.176 844.871 679.748 844.145 678.893C843.424 678.037 843.063 676.818 843.063 675.236C843.063 673.602 843.433 672.374 844.171 671.554C844.915 670.728 845.967 670.314 847.326 670.314C848.756 670.314 849.819 670.722 850.517 671.536C851.214 672.351 851.562 673.584 851.562 675.236ZM849.901 675.236C849.901 673.977 849.699 673.036 849.295 672.415C848.896 671.794 848.249 671.483 847.353 671.483C846.444 671.483 845.779 671.8 845.357 672.433C844.936 673.065 844.725 674 844.725 675.236C844.725 676.467 844.936 677.404 845.357 678.049C845.779 678.688 846.412 679.007 847.256 679.007C848.188 679.007 848.861 678.693 849.277 678.066C849.693 677.439 849.901 676.496 849.901 675.236ZM860.36 680V673.892C860.36 673.095 860.205 672.503 859.895 672.116C859.59 671.729 859.101 671.536 858.427 671.536C857.7 671.536 857.103 671.803 856.634 672.336C856.171 672.863 855.939 673.581 855.939 674.489V680H854.357V672.521C854.357 671.413 854.34 670.736 854.305 670.49H855.799C855.805 670.52 855.811 670.599 855.816 670.728C855.822 670.856 855.828 671.006 855.834 671.176C855.846 671.34 855.857 671.653 855.869 672.116H855.896C856.511 670.915 857.524 670.314 858.937 670.314C859.95 670.314 860.706 670.59 861.204 671.141C861.702 671.686 861.951 672.526 861.951 673.663V680H860.36ZM872.858 677.284C872.858 678.187 872.516 678.896 871.83 679.411C871.15 679.921 870.207 680.176 869 680.176C867.793 680.176 866.873 679.988 866.24 679.613C865.613 679.232 865.203 678.635 865.01 677.82L866.407 677.548C866.519 678.052 866.756 678.421 867.119 678.655C867.488 678.884 868.115 678.998 869 678.998C870.582 678.998 871.373 678.497 871.373 677.495C871.373 677.12 871.229 676.818 870.942 676.59C870.655 676.355 870.216 676.165 869.624 676.019C868.077 675.638 867.096 675.339 866.68 675.122C866.264 674.905 865.944 674.636 865.722 674.313C865.499 673.985 865.388 673.578 865.388 673.092C865.388 672.23 865.698 671.557 866.319 671.07C866.94 670.584 867.84 670.341 869.018 670.341C870.049 670.341 870.872 670.537 871.487 670.93C872.103 671.316 872.486 671.882 872.639 672.626L871.215 672.802C871.15 672.38 870.942 672.061 870.591 671.844C870.239 671.627 869.715 671.519 869.018 671.519C867.582 671.519 866.864 671.961 866.864 672.846C866.864 673.197 866.984 673.479 867.225 673.689C867.471 673.9 867.863 674.07 868.402 674.199L869.448 674.472C870.403 674.706 871.089 674.938 871.505 675.166C871.927 675.395 872.258 675.682 872.498 676.027C872.738 676.367 872.858 676.786 872.858 677.284ZM880.9 678.752H884.24V680H875.609V678.752H879.318V671.738H876.515V670.49H880.9V678.752ZM879.143 668.645V666.957H880.9V668.645H879.143ZM894.479 677.284C894.479 678.187 894.137 678.896 893.451 679.411C892.771 679.921 891.828 680.176 890.621 680.176C889.414 680.176 888.494 679.988 887.861 679.613C887.234 679.232 886.824 678.635 886.631 677.82L888.028 677.548C888.14 678.052 888.377 678.421 888.74 678.655C889.109 678.884 889.736 678.998 890.621 678.998C892.203 678.998 892.994 678.497 892.994 677.495C892.994 677.12 892.851 676.818 892.563 676.59C892.276 676.355 891.837 676.165 891.245 676.019C889.698 675.638 888.717 675.339 888.301 675.122C887.885 674.905 887.565 674.636 887.343 674.313C887.12 673.985 887.009 673.578 887.009 673.092C887.009 672.23 887.319 671.557 887.94 671.07C888.562 670.584 889.461 670.341 890.639 670.341C891.67 670.341 892.493 670.537 893.108 670.93C893.724 671.316 894.107 671.882 894.26 672.626L892.836 672.802C892.771 672.38 892.563 672.061 892.212 671.844C891.86 671.627 891.336 671.519 890.639 671.519C889.203 671.519 888.485 671.961 888.485 672.846C888.485 673.197 888.605 673.479 888.846 673.689C889.092 673.9 889.484 674.07 890.023 674.199L891.069 674.472C892.024 674.706 892.71 674.938 893.126 675.166C893.548 675.395 893.879 675.682 894.119 676.027C894.359 676.367 894.479 676.786 894.479 677.284ZM897.644 671.738V670.49H899.138L899.647 668.012H900.702V670.49H904.499V671.738H900.702V677.469C900.702 677.932 900.825 678.274 901.071 678.497C901.323 678.72 901.733 678.831 902.302 678.831C903.087 678.831 903.957 678.731 904.912 678.532V679.736C903.922 680.006 902.94 680.141 901.968 680.141C901.019 680.141 900.307 679.941 899.832 679.543C899.357 679.139 899.12 678.503 899.12 677.636V671.738H897.644ZM909.614 675.579C909.614 676.646 909.849 677.48 910.317 678.084C910.792 678.688 911.439 678.989 912.26 678.989C912.863 678.989 913.391 678.86 913.842 678.603C914.299 678.339 914.604 677.981 914.756 677.53L916.145 677.926C915.887 678.652 915.412 679.209 914.721 679.596C914.035 679.982 913.215 680.176 912.26 680.176C910.877 680.176 909.813 679.745 909.069 678.884C908.325 678.022 907.953 676.789 907.953 675.184C907.953 673.619 908.316 672.418 909.043 671.58C909.775 670.736 910.83 670.314 912.207 670.314C913.584 670.314 914.627 670.733 915.336 671.571C916.045 672.409 916.399 673.675 916.399 675.368V675.579H909.614ZM912.225 671.483C911.439 671.483 910.818 671.741 910.361 672.257C909.904 672.767 909.661 673.47 909.632 674.366H914.765C914.601 672.444 913.754 671.483 912.225 671.483ZM925.224 680V673.892C925.224 673.095 925.068 672.503 924.758 672.116C924.453 671.729 923.964 671.536 923.29 671.536C922.563 671.536 921.966 671.803 921.497 672.336C921.034 672.863 920.803 673.581 920.803 674.489V680H919.221V672.521C919.221 671.413 919.203 670.736 919.168 670.49H920.662C920.668 670.52 920.674 670.599 920.68 670.728C920.686 670.856 920.691 671.006 920.697 671.176C920.709 671.34 920.721 671.653 920.732 672.116H920.759C921.374 670.915 922.388 670.314 923.8 670.314C924.813 670.314 925.569 670.59 926.067 671.141C926.565 671.686 926.814 672.526 926.814 673.663V680H925.224ZM930.075 671.738V670.49H931.569L932.079 668.012H933.134V670.49H936.931V671.738H933.134V677.469C933.134 677.932 933.257 678.274 933.503 678.497C933.755 678.72 934.165 678.831 934.733 678.831C935.519 678.831 936.389 678.731 937.344 678.532V679.736C936.354 680.006 935.372 680.141 934.399 680.141C933.45 680.141 932.738 679.941 932.264 679.543C931.789 679.139 931.552 678.503 931.552 677.636V671.738H930.075ZM951.802 668.144H959.035V669.515H956.258V678.629H959.035V680H951.802V678.629H954.579V669.515H951.802V668.144ZM968.466 680V673.892C968.466 673.095 968.311 672.503 968 672.116C967.695 671.729 967.206 671.536 966.532 671.536C965.806 671.536 965.208 671.803 964.739 672.336C964.276 672.863 964.045 673.581 964.045 674.489V680H962.463V672.521C962.463 671.413 962.445 670.736 962.41 670.49H963.904C963.91 670.52 963.916 670.599 963.922 670.728C963.928 670.856 963.934 671.006 963.939 671.176C963.951 671.34 963.963 671.653 963.975 672.116H964.001C964.616 670.915 965.63 670.314 967.042 670.314C968.056 670.314 968.812 670.59 969.31 671.141C969.808 671.686 970.057 672.526 970.057 673.663V680H968.466ZM981.228 675.201C981.228 678.518 980.079 680.176 977.782 680.176C976.341 680.176 975.371 679.637 974.873 678.559H974.829C974.853 678.605 974.864 679.092 974.864 680.018V683.735H973.273V672.459C973.273 671.463 973.256 670.807 973.221 670.49H974.759C974.765 670.514 974.773 670.602 974.785 670.754C974.797 670.9 974.809 671.12 974.82 671.413C974.838 671.7 974.847 671.914 974.847 672.055H974.882C975.175 671.439 975.547 670.994 975.998 670.719C976.455 670.438 977.05 670.297 977.782 670.297C978.942 670.297 979.807 670.698 980.375 671.501C980.943 672.298 981.228 673.531 981.228 675.201ZM979.593 675.201C979.593 673.877 979.414 672.934 979.057 672.371C978.699 671.803 978.137 671.519 977.369 671.519C976.484 671.519 975.846 671.841 975.453 672.485C975.061 673.124 974.864 674.094 974.864 675.395C974.864 676.643 975.061 677.557 975.453 678.137C975.846 678.717 976.479 679.007 977.352 679.007C978.131 679.007 978.699 678.711 979.057 678.119C979.414 677.527 979.593 676.555 979.593 675.201ZM985.666 670.49V676.52C985.666 677.434 985.81 678.069 986.097 678.427C986.384 678.778 986.896 678.954 987.635 678.954C988.391 678.954 988.988 678.696 989.428 678.181C989.867 677.665 990.087 676.938 990.087 676.001V670.49H991.678V677.97C991.678 679.077 991.695 679.754 991.73 680H990.236C990.23 679.971 990.225 679.892 990.219 679.763C990.213 679.634 990.204 679.487 990.192 679.323C990.187 679.153 990.178 678.837 990.166 678.374H990.14C989.776 679.03 989.354 679.496 988.874 679.771C988.399 680.041 987.808 680.176 987.099 680.176C986.056 680.176 985.291 679.918 984.805 679.402C984.324 678.881 984.084 678.022 984.084 676.827V670.49H985.666ZM994.938 671.738V670.49H996.433L996.942 668.012H997.997V670.49H1001.79V671.738H997.997V677.469C997.997 677.932 998.12 678.274 998.366 678.497C998.618 678.72 999.028 678.831 999.597 678.831C1000.38 678.831 1001.25 678.731 1002.21 678.532V679.736C1001.22 680.006 1000.24 680.141 999.263 680.141C998.313 680.141 997.602 679.941 997.127 679.543C996.652 679.139 996.415 678.503 996.415 677.636V671.738H994.938ZM1013.4 677.284C1013.4 678.187 1013.05 678.896 1012.37 679.411C1011.69 679.921 1010.74 680.176 1009.54 680.176C1008.33 680.176 1007.41 679.988 1006.78 679.613C1006.15 679.232 1005.74 678.635 1005.55 677.82L1006.94 677.548C1007.06 678.052 1007.29 678.421 1007.66 678.655C1008.03 678.884 1008.65 678.998 1009.54 678.998C1011.12 678.998 1011.91 678.497 1011.91 677.495C1011.91 677.12 1011.77 676.818 1011.48 676.59C1011.19 676.355 1010.75 676.165 1010.16 676.019C1008.61 675.638 1007.63 675.339 1007.22 675.122C1006.8 674.905 1006.48 674.636 1006.26 674.313C1006.04 673.985 1005.92 673.578 1005.92 673.092C1005.92 672.23 1006.24 671.557 1006.86 671.07C1007.48 670.584 1008.38 670.341 1009.55 670.341C1010.59 670.341 1011.41 670.537 1012.02 670.93C1012.64 671.316 1013.02 671.882 1013.18 672.626L1011.75 672.802C1011.69 672.38 1011.48 672.061 1011.13 671.844C1010.78 671.627 1010.25 671.519 1009.55 671.519C1008.12 671.519 1007.4 671.961 1007.4 672.846C1007.4 673.197 1007.52 673.479 1007.76 673.689C1008.01 673.9 1008.4 674.07 1008.94 674.199L1009.99 674.472C1010.94 674.706 1011.63 674.938 1012.04 675.166C1012.46 675.395 1012.79 675.682 1013.04 676.027C1013.28 676.367 1013.4 676.786 1013.4 677.284ZM873.219 710.024C873.371 710.024 873.544 710.004 873.737 709.963V710.947C873.339 711.041 872.932 711.088 872.516 711.088C871.93 711.088 871.502 710.936 871.232 710.631C870.969 710.32 870.819 709.837 870.784 709.181H870.731C870.351 709.89 869.899 710.399 869.378 710.71C868.862 711.021 868.224 711.176 867.462 711.176C866.536 711.176 865.839 710.924 865.37 710.42C864.901 709.916 864.667 709.225 864.667 708.346C864.667 706.301 865.997 705.264 868.657 705.234L870.731 705.199V704.681C870.731 703.913 870.576 703.362 870.266 703.028C869.955 702.688 869.46 702.519 868.78 702.519C868.089 702.519 867.591 702.642 867.286 702.888C866.981 703.134 866.8 703.515 866.741 704.03L865.089 703.881C865.358 702.17 866.598 701.314 868.807 701.314C869.979 701.314 870.857 701.59 871.443 702.141C872.035 702.686 872.331 703.477 872.331 704.514V708.609C872.331 709.078 872.393 709.433 872.516 709.673C872.639 709.907 872.873 710.024 873.219 710.024ZM867.866 709.972C868.429 709.972 868.927 709.837 869.36 709.567C869.794 709.298 870.131 708.938 870.371 708.486C870.611 708.035 870.731 707.569 870.731 707.089V706.307L869.062 706.342C868.37 706.354 867.843 706.43 867.479 706.57C867.116 706.711 866.832 706.928 866.627 707.221C866.428 707.508 866.328 707.892 866.328 708.372C866.328 708.853 866.457 709.239 866.715 709.532C866.979 709.825 867.362 709.972 867.866 709.972ZM881.981 711V704.892C881.981 704.095 881.826 703.503 881.516 703.116C881.211 702.729 880.722 702.536 880.048 702.536C879.321 702.536 878.724 702.803 878.255 703.336C877.792 703.863 877.561 704.581 877.561 705.489V711H875.979V703.521C875.979 702.413 875.961 701.736 875.926 701.49H877.42C877.426 701.52 877.432 701.599 877.438 701.728C877.443 701.856 877.449 702.006 877.455 702.176C877.467 702.34 877.479 702.653 877.49 703.116H877.517C878.132 701.915 879.146 701.314 880.558 701.314C881.571 701.314 882.327 701.59 882.825 702.141C883.323 702.686 883.572 703.526 883.572 704.663V711H881.981ZM892.739 709.471C892.452 710.086 892.071 710.534 891.597 710.815C891.122 711.091 890.53 711.229 889.821 711.229C888.638 711.229 887.768 710.821 887.211 710.007C886.654 709.192 886.376 707.965 886.376 706.324C886.376 703.008 887.524 701.35 889.821 701.35C890.53 701.35 891.122 701.476 891.597 701.728C892.077 701.979 892.461 702.393 892.748 702.967H892.766L892.748 701.64V697.957H894.33V709.04C894.33 710.03 894.348 710.684 894.383 711H892.871C892.848 710.912 892.827 710.698 892.81 710.358C892.792 710.019 892.783 709.723 892.783 709.471H892.739ZM888.011 706.271C888.011 707.572 888.184 708.521 888.529 709.119C888.881 709.711 889.449 710.007 890.234 710.007C891.09 710.007 891.723 709.699 892.133 709.084C892.543 708.463 892.748 707.479 892.748 706.131C892.748 704.871 892.549 703.954 892.15 703.38C891.758 702.806 891.125 702.519 890.252 702.519C889.461 702.519 888.89 702.82 888.538 703.424C888.187 704.027 888.011 704.977 888.011 706.271ZM916.681 705.015C916.681 706.989 916.291 708.51 915.512 709.576C914.738 710.643 913.625 711.176 912.172 711.176C910.713 711.176 909.6 710.651 908.832 709.603C908.064 708.554 907.681 707.024 907.681 705.015C907.681 703.04 908.062 701.537 908.823 700.506C909.585 699.475 910.707 698.959 912.189 698.959C913.637 698.959 914.747 699.469 915.521 700.488C916.294 701.502 916.681 703.011 916.681 705.015ZM914.914 705.015C914.914 701.892 914.006 700.33 912.189 700.33C910.361 700.33 909.447 701.892 909.447 705.015C909.447 706.597 909.679 707.792 910.142 708.601C910.604 709.409 911.284 709.813 912.181 709.813C913.136 709.813 913.83 709.403 914.264 708.583C914.697 707.763 914.914 706.573 914.914 705.015ZM920.803 701.49V707.52C920.803 708.434 920.946 709.069 921.233 709.427C921.521 709.778 922.033 709.954 922.771 709.954C923.527 709.954 924.125 709.696 924.564 709.181C925.004 708.665 925.224 707.938 925.224 707.001V701.49H926.814V708.97C926.814 710.077 926.832 710.754 926.867 711H925.373C925.367 710.971 925.361 710.892 925.355 710.763C925.35 710.634 925.341 710.487 925.329 710.323C925.323 710.153 925.314 709.837 925.303 709.374H925.276C924.913 710.03 924.491 710.496 924.011 710.771C923.536 711.041 922.944 711.176 922.235 711.176C921.192 711.176 920.428 710.918 919.941 710.402C919.461 709.881 919.221 709.022 919.221 707.827V701.49H920.803ZM930.075 702.738V701.49H931.569L932.079 699.012H933.134V701.49H936.931V702.738H933.134V708.469C933.134 708.932 933.257 709.274 933.503 709.497C933.755 709.72 934.165 709.831 934.733 709.831C935.519 709.831 936.389 709.731 937.344 709.532V710.736C936.354 711.006 935.372 711.141 934.399 711.141C933.45 711.141 932.738 710.941 932.264 710.543C931.789 710.139 931.552 709.503 931.552 708.636V702.738H930.075ZM948.796 706.201C948.796 709.518 947.647 711.176 945.351 711.176C943.909 711.176 942.939 710.637 942.441 709.559H942.397C942.421 709.605 942.433 710.092 942.433 711.018V714.735H940.842V703.459C940.842 702.463 940.824 701.807 940.789 701.49H942.327C942.333 701.514 942.342 701.602 942.354 701.754C942.365 701.9 942.377 702.12 942.389 702.413C942.406 702.7 942.415 702.914 942.415 703.055H942.45C942.743 702.439 943.115 701.994 943.566 701.719C944.023 701.438 944.618 701.297 945.351 701.297C946.511 701.297 947.375 701.698 947.943 702.501C948.512 703.298 948.796 704.531 948.796 706.201ZM947.161 706.201C947.161 704.877 946.982 703.934 946.625 703.371C946.268 702.803 945.705 702.519 944.938 702.519C944.053 702.519 943.414 702.841 943.021 703.485C942.629 704.124 942.433 705.094 942.433 706.395C942.433 707.643 942.629 708.557 943.021 709.137C943.414 709.717 944.047 710.007 944.92 710.007C945.699 710.007 946.268 709.711 946.625 709.119C946.982 708.527 947.161 707.555 947.161 706.201ZM953.234 701.49V707.52C953.234 708.434 953.378 709.069 953.665 709.427C953.952 709.778 954.465 709.954 955.203 709.954C955.959 709.954 956.557 709.696 956.996 709.181C957.436 708.665 957.655 707.938 957.655 707.001V701.49H959.246V708.97C959.246 710.077 959.264 710.754 959.299 711H957.805C957.799 710.971 957.793 710.892 957.787 710.763C957.781 710.634 957.772 710.487 957.761 710.323C957.755 710.153 957.746 709.837 957.734 709.374H957.708C957.345 710.03 956.923 710.496 956.442 710.771C955.968 711.041 955.376 711.176 954.667 711.176C953.624 711.176 952.859 710.918 952.373 710.402C951.893 709.881 951.652 709.022 951.652 707.827V701.49H953.234ZM962.507 702.738V701.49H964.001L964.511 699.012H965.565V701.49H969.362V702.738H965.565V708.469C965.565 708.932 965.688 709.274 965.935 709.497C966.187 709.72 966.597 709.831 967.165 709.831C967.95 709.831 968.82 709.731 969.775 709.532V710.736C968.785 711.006 967.804 711.141 966.831 711.141C965.882 711.141 965.17 710.941 964.695 710.543C964.221 710.139 963.983 709.503 963.983 708.636V702.738H962.507ZM980.964 708.284C980.964 709.187 980.621 709.896 979.936 710.411C979.256 710.921 978.312 711.176 977.105 711.176C975.898 711.176 974.979 710.988 974.346 710.613C973.719 710.232 973.309 709.635 973.115 708.82L974.513 708.548C974.624 709.052 974.861 709.421 975.225 709.655C975.594 709.884 976.221 709.998 977.105 709.998C978.688 709.998 979.479 709.497 979.479 708.495C979.479 708.12 979.335 707.818 979.048 707.59C978.761 707.355 978.321 707.165 977.729 707.019C976.183 706.638 975.201 706.339 974.785 706.122C974.369 705.905 974.05 705.636 973.827 705.313C973.604 704.985 973.493 704.578 973.493 704.092C973.493 703.23 973.804 702.557 974.425 702.07C975.046 701.584 975.945 701.341 977.123 701.341C978.154 701.341 978.978 701.537 979.593 701.93C980.208 702.316 980.592 702.882 980.744 703.626L979.32 703.802C979.256 703.38 979.048 703.061 978.696 702.844C978.345 702.627 977.82 702.519 977.123 702.519C975.688 702.519 974.97 702.961 974.97 703.846C974.97 704.197 975.09 704.479 975.33 704.689C975.576 704.9 975.969 705.07 976.508 705.199L977.554 705.472C978.509 705.706 979.194 705.938 979.61 706.166C980.032 706.395 980.363 706.682 980.604 707.027C980.844 707.367 980.964 707.786 980.964 708.284Z" fill="white"/>
<path d="M845.181 237.015C845.181 238.614 845.43 239.815 845.928 240.618C846.432 241.415 847.199 241.813 848.23 241.813C848.822 241.813 849.358 241.614 849.839 241.216C850.319 240.812 850.727 240.185 851.061 239.335L852.458 239.906C851.585 242.086 850.17 243.176 848.213 243.176C846.672 243.176 845.485 242.646 844.653 241.585C843.827 240.524 843.414 239.001 843.414 237.015C843.414 232.978 844.984 230.959 848.125 230.959C850.111 230.959 851.477 231.94 852.221 233.903L850.744 234.475C850.527 233.812 850.188 233.291 849.725 232.91C849.268 232.523 848.737 232.33 848.134 232.33C847.132 232.33 846.388 232.708 845.901 233.464C845.421 234.22 845.181 235.403 845.181 237.015ZM856.439 233.49V239.52C856.439 240.434 856.583 241.069 856.87 241.427C857.157 241.778 857.67 241.954 858.408 241.954C859.164 241.954 859.762 241.696 860.201 241.181C860.641 240.665 860.86 239.938 860.86 239.001V233.49H862.451V240.97C862.451 242.077 862.469 242.754 862.504 243H861.01C861.004 242.971 860.998 242.892 860.992 242.763C860.986 242.634 860.978 242.487 860.966 242.323C860.96 242.153 860.951 241.837 860.939 241.374H860.913C860.55 242.03 860.128 242.496 859.647 242.771C859.173 243.041 858.581 243.176 857.872 243.176C856.829 243.176 856.064 242.918 855.578 242.402C855.098 241.881 854.857 241.022 854.857 239.827V233.49H856.439ZM873.358 240.284C873.358 241.187 873.016 241.896 872.33 242.411C871.65 242.921 870.707 243.176 869.5 243.176C868.293 243.176 867.373 242.988 866.74 242.613C866.113 242.232 865.703 241.635 865.51 240.82L866.907 240.548C867.019 241.052 867.256 241.421 867.619 241.655C867.988 241.884 868.615 241.998 869.5 241.998C871.082 241.998 871.873 241.497 871.873 240.495C871.873 240.12 871.729 239.818 871.442 239.59C871.155 239.355 870.716 239.165 870.124 239.019C868.577 238.638 867.596 238.339 867.18 238.122C866.764 237.905 866.444 237.636 866.222 237.313C865.999 236.985 865.888 236.578 865.888 236.092C865.888 235.23 866.198 234.557 866.819 234.07C867.44 233.584 868.34 233.341 869.518 233.341C870.549 233.341 871.372 233.537 871.987 233.93C872.603 234.316 872.986 234.882 873.139 235.626L871.715 235.802C871.65 235.38 871.442 235.061 871.091 234.844C870.739 234.627 870.215 234.519 869.518 234.519C868.082 234.519 867.364 234.961 867.364 235.846C867.364 236.197 867.484 236.479 867.725 236.689C867.971 236.9 868.363 237.07 868.902 237.199L869.948 237.472C870.903 237.706 871.589 237.938 872.005 238.166C872.427 238.395 872.758 238.682 872.998 239.027C873.238 239.367 873.358 239.786 873.358 240.284ZM876.522 234.738V233.49H878.017L878.526 231.012H879.581V233.49H883.378V234.738H879.581V240.469C879.581 240.932 879.704 241.274 879.95 241.497C880.202 241.72 880.612 241.831 881.181 241.831C881.966 241.831 882.836 241.731 883.791 241.532V242.736C882.801 243.006 881.819 243.141 880.847 243.141C879.897 243.141 879.186 242.941 878.711 242.543C878.236 242.139 877.999 241.503 877.999 240.636V234.738H876.522ZM895.305 238.236C895.305 239.836 894.936 241.061 894.197 241.91C893.465 242.754 892.404 243.176 891.016 243.176C889.656 243.176 888.613 242.748 887.887 241.893C887.166 241.037 886.806 239.818 886.806 238.236C886.806 236.602 887.175 235.374 887.913 234.554C888.657 233.728 889.709 233.314 891.068 233.314C892.498 233.314 893.562 233.722 894.259 234.536C894.956 235.351 895.305 236.584 895.305 238.236ZM893.644 238.236C893.644 236.977 893.441 236.036 893.037 235.415C892.639 234.794 891.991 234.483 891.095 234.483C890.187 234.483 889.521 234.8 889.1 235.433C888.678 236.065 888.467 237 888.467 238.236C888.467 239.467 888.678 240.404 889.1 241.049C889.521 241.688 890.154 242.007 890.998 242.007C891.93 242.007 892.604 241.693 893.02 241.066C893.436 240.439 893.644 239.496 893.644 238.236ZM901.141 243V236.971C901.141 236.068 901.067 235.438 900.921 235.081C900.78 234.718 900.52 234.536 900.139 234.536C899.764 234.536 899.459 234.817 899.225 235.38C898.996 235.942 898.882 236.704 898.882 237.665V243H897.396V235.521C897.396 234.413 897.379 233.736 897.344 233.49H898.653L898.706 234.606V235.028H898.724C898.923 234.431 899.175 233.997 899.479 233.728C899.784 233.452 900.165 233.314 900.622 233.314C901.138 233.314 901.521 233.455 901.773 233.736C902.031 234.018 902.216 234.451 902.327 235.037H902.345C902.579 234.416 902.857 233.974 903.18 233.71C903.508 233.446 903.921 233.314 904.419 233.314C905.11 233.314 905.605 233.566 905.904 234.07C906.203 234.574 906.353 235.438 906.353 236.663V243H904.876V236.971C904.876 236.068 904.803 235.438 904.656 235.081C904.516 234.718 904.255 234.536 903.874 234.536C903.487 234.536 903.18 234.782 902.951 235.274C902.729 235.767 902.617 236.505 902.617 237.489V243H901.141ZM913.832 241.752H917.172V243H908.541V241.752H912.25V234.738H909.446V233.49H913.832V241.752ZM912.074 231.645V229.957H913.832V231.645H912.074ZM919.387 243V241.796L925.372 234.712H919.738V233.49H927.156V234.694L921.162 241.778H927.481V243H919.387ZM938.582 242.024C938.734 242.024 938.907 242.004 939.101 241.963V242.947C938.702 243.041 938.295 243.088 937.879 243.088C937.293 243.088 936.865 242.936 936.596 242.631C936.332 242.32 936.183 241.837 936.147 241.181H936.095C935.714 241.89 935.263 242.399 934.741 242.71C934.226 243.021 933.587 243.176 932.825 243.176C931.899 243.176 931.202 242.924 930.733 242.42C930.265 241.916 930.03 241.225 930.03 240.346C930.03 238.301 931.36 237.264 934.021 237.234L936.095 237.199V236.681C936.095 235.913 935.939 235.362 935.629 235.028C935.318 234.688 934.823 234.519 934.144 234.519C933.452 234.519 932.954 234.642 932.649 234.888C932.345 235.134 932.163 235.515 932.104 236.03L930.452 235.881C930.722 234.17 931.961 233.314 934.17 233.314C935.342 233.314 936.221 233.59 936.807 234.141C937.398 234.686 937.694 235.477 937.694 236.514V240.609C937.694 241.078 937.756 241.433 937.879 241.673C938.002 241.907 938.236 242.024 938.582 242.024ZM933.229 241.972C933.792 241.972 934.29 241.837 934.724 241.567C935.157 241.298 935.494 240.938 935.734 240.486C935.975 240.035 936.095 239.569 936.095 239.089V238.307L934.425 238.342C933.733 238.354 933.206 238.43 932.843 238.57C932.479 238.711 932.195 238.928 931.99 239.221C931.791 239.508 931.691 239.892 931.691 240.372C931.691 240.853 931.82 241.239 932.078 241.532C932.342 241.825 932.726 241.972 933.229 241.972ZM949.296 238.201C949.296 239.865 948.997 241.11 948.399 241.937C947.808 242.763 946.958 243.176 945.851 243.176C944.421 243.176 943.442 242.637 942.915 241.559H942.897C942.897 241.84 942.886 242.133 942.862 242.438C942.845 242.742 942.83 242.93 942.818 243H941.289C941.324 242.684 941.342 242.03 941.342 241.04V229.957H942.924V233.675C942.924 234.056 942.912 234.516 942.889 235.055H942.924C943.457 233.883 944.436 233.297 945.859 233.297C948.15 233.297 949.296 234.932 949.296 238.201ZM947.661 238.254C947.661 236.941 947.479 235.992 947.116 235.406C946.759 234.814 946.196 234.519 945.429 234.519C944.556 234.519 943.92 234.841 943.521 235.485C943.123 236.124 942.924 237.094 942.924 238.395C942.924 239.619 943.117 240.527 943.504 241.119C943.891 241.711 944.526 242.007 945.411 242.007C946.202 242.007 946.773 241.702 947.125 241.093C947.482 240.478 947.661 239.531 947.661 238.254ZM957.074 241.752H960.414V243H951.783V241.752H955.492V234.738H952.688V233.49H957.074V241.752ZM955.316 231.645V229.957H957.074V231.645H955.316ZM967.806 241.752H971.146V243H962.515V241.752H966.224V231.205H963.684V229.957H967.806V241.752ZM978.695 241.752H982.035V243H973.404V241.752H977.113V234.738H974.31V233.49H978.695V241.752ZM976.938 231.645V229.957H978.695V231.645H976.938ZM984.628 234.738V233.49H986.122L986.632 231.012H987.687V233.49H991.483V234.738H987.687V240.469C987.687 240.932 987.81 241.274 988.056 241.497C988.308 241.72 988.718 241.831 989.286 241.831C990.071 241.831 990.941 241.731 991.896 241.532V242.736C990.906 243.006 989.925 243.141 988.952 243.141C988.003 243.141 987.291 242.941 986.816 242.543C986.342 242.139 986.104 241.503 986.104 240.636V234.738H984.628ZM996.335 246.735C995.901 246.735 995.538 246.703 995.245 246.639V245.452C995.468 245.487 995.714 245.505 995.983 245.505C996.446 245.505 996.88 245.332 997.284 244.986C997.694 244.641 998.04 244.09 998.321 243.334L998.479 242.903L994.349 233.49H996.036L998.356 239.133C998.89 240.445 999.177 241.189 999.218 241.365L999.578 240.398L1002.3 233.49H1003.97L999.965 243C999.443 244.377 998.901 245.344 998.339 245.9C997.782 246.457 997.114 246.735 996.335 246.735Z" fill="white"/>
<g opacity="0.8" filter="url(#filter0_f_35_4)">
<circle cx="524.5" cy="462.5" r="162.5" fill="#5C5EF1"/>
</g>
<path d="M773.445 455.655C769.774 455.655 766.756 458.458 766.417 462.043H701.675L689.65 474.068H619.444L601.392 456.016H586.594V446.535H608.772L625.627 463.388H652.846C653.171 465.612 655.083 467.323 657.399 467.323C659.943 467.323 662.006 465.26 662.006 462.715C662.006 460.171 659.943 458.108 657.399 458.108C655.083 458.108 653.174 459.819 652.846 462.043H626.184L609.329 445.19H586.594V436.059H619.971L632.846 448.934H716.717C717.059 452.882 720.38 455.994 724.417 455.994C728.68 455.994 732.15 452.525 732.15 448.262C732.15 443.999 728.68 440.529 724.417 440.529C720.38 440.529 717.059 443.638 716.717 447.589H633.403L620.528 434.714H586.594V425.169H608.675L621.612 412.232H646.687L656.915 422.461H679.564C680.091 424.997 682.342 426.909 685.032 426.909C688.111 426.909 690.618 424.403 690.618 421.323C690.618 418.244 688.111 415.737 685.032 415.737C681.952 415.737 679.566 418.131 679.456 421.116H657.472L647.243 410.888H621.055L608.118 423.824H586.594V409.045H605.184L621.609 392.62H660.358L694.851 358.127C696.118 359.337 697.834 360.082 699.727 360.082C703.627 360.082 706.787 356.922 706.787 353.022C706.787 349.122 703.627 345.962 699.727 345.962C695.827 345.962 692.667 349.122 692.667 353.022C692.667 354.544 693.151 355.951 693.969 357.105L659.801 391.273H621.052L604.627 407.698H586.594V406.288C586.594 402.8 583.764 399.971 580.276 399.971H578.926V381.878L595.351 365.453V326.707L629.519 292.539C630.673 293.359 632.08 293.841 633.602 293.841C637.502 293.841 640.662 290.681 640.662 286.781C640.662 282.881 637.502 279.721 633.602 279.721C629.702 279.721 626.542 282.881 626.542 286.781C626.542 288.672 627.287 290.387 628.497 291.657L594.203 325.951L594.006 326.148V364.896L577.581 381.321V399.971H562.802V378.39L575.739 365.453V339.265L565.51 329.036V307.052C568.493 306.942 570.89 304.486 570.89 301.477C570.89 298.467 568.383 295.89 565.303 295.89C562.224 295.89 559.717 298.397 559.717 301.477C559.717 304.166 561.629 306.417 564.166 306.944V329.593L574.394 339.821V364.896L561.457 377.833V399.973H551.912V365.983L539.037 353.108V269.791C542.985 269.449 546.097 266.128 546.097 262.091C546.097 257.828 542.628 254.358 538.365 254.358C534.102 254.358 530.632 257.828 530.632 262.091C530.632 266.128 533.741 269.449 537.692 269.791V353.662L550.567 366.537V399.971H541.436V377.177L524.581 360.324V333.662C526.805 333.337 528.516 331.425 528.516 329.109C528.516 326.565 526.453 324.502 523.908 324.502C521.364 324.502 519.301 326.565 519.301 329.109C519.301 331.425 521.012 333.334 523.236 333.662V360.881L540.091 377.736V399.973H530.611V385.119L512.556 367.067V296.861L524.581 284.836V220.088C528.163 219.749 530.968 216.734 530.968 213.06C530.968 209.16 527.808 206 523.908 206C520.009 206 516.848 209.16 516.848 213.06C516.848 216.731 519.651 219.749 523.236 220.088V284.274L511.211 296.299V367.618L529.266 385.67V399.968H516.859V382.959L501.397 367.497C502.26 366.661 502.798 365.491 502.798 364.192C502.798 361.647 500.735 359.584 498.191 359.584C495.647 359.584 493.584 361.647 493.584 364.192C493.584 366.736 495.647 368.799 498.191 368.799C498.947 368.799 499.659 368.613 500.289 368.29L515.514 383.516V399.968H504.853V392.582L483.662 371.391V338.28L497.163 324.779V292.878C500.964 292.394 503.914 289.142 503.914 285.21C503.914 280.947 500.445 277.478 496.182 277.478C491.919 277.478 488.449 280.947 488.449 285.21C488.449 289.473 491.723 292.741 495.819 292.932V324.219L482.317 337.721V371.948L503.508 393.139V399.968H495.205V391.638L476.882 373.315V329.044L480.131 325.795C480.789 326.159 481.545 326.368 482.352 326.368C484.896 326.368 486.959 324.305 486.959 321.761C486.959 319.217 484.896 317.154 482.352 317.154C479.808 317.154 477.745 319.217 477.745 321.761C477.745 323.012 478.245 324.141 479.052 324.972L475.537 328.488V373.874L493.861 392.198V399.971H481.15V394.589L464.243 377.682V312.638L418.058 266.453C419.005 265.251 419.57 263.737 419.57 262.091C419.57 258.191 416.41 255.031 412.51 255.031C408.61 255.031 405.45 258.191 405.45 262.091C405.45 265.991 408.61 269.151 412.51 269.151C414.277 269.151 415.891 268.5 417.13 267.427L462.899 313.195V378.239L479.805 395.146V399.971H470.93V393.295L453.361 375.727V352.113C455.586 351.787 457.296 349.875 457.296 347.559C457.296 345.015 455.233 342.952 452.689 342.952C450.145 342.952 448.082 345.015 448.082 347.559C448.082 349.875 449.792 351.785 452.017 352.113V376.284L469.585 393.852V399.971H468.235C464.746 399.971 461.917 402.8 461.917 406.288V407.698H443.883L427.458 391.273H388.713L354.544 357.105C355.365 355.951 355.846 354.544 355.846 353.022C355.846 349.122 352.686 345.962 348.786 345.962C344.886 345.962 341.726 349.122 341.726 353.022C341.726 356.922 344.886 360.082 348.786 360.082C350.677 360.082 352.393 359.337 353.662 358.127L387.957 392.421L388.153 392.617H426.899L443.324 409.043H461.914V423.822H440.39L427.453 410.885H401.265L391.036 421.113H369.052C368.942 418.131 366.486 415.734 363.476 415.734C360.467 415.734 357.89 418.241 357.89 421.32C357.89 424.4 360.397 426.907 363.476 426.907C366.166 426.907 368.417 424.994 368.944 422.458H391.593L401.821 412.23H426.896L439.833 425.166H461.914V434.712H427.98L415.105 447.587H331.791C331.449 443.638 328.128 440.526 324.091 440.526C319.828 440.526 316.358 443.996 316.358 448.259C316.358 452.522 319.828 455.991 324.091 455.991C328.128 455.991 331.449 452.882 331.791 448.931H415.662L428.537 436.056H461.914V445.187H439.179L422.327 462.04H395.665C395.34 459.816 393.427 458.105 391.112 458.105C388.567 458.105 386.504 460.168 386.504 462.713C386.504 465.257 388.567 467.32 391.112 467.32C393.427 467.32 395.337 465.609 395.665 463.385H422.883L439.736 446.532H461.914V456.013H447.116L429.064 474.065H358.859L346.834 462.04H282.088C281.749 458.458 278.734 455.653 275.06 455.653C271.16 455.653 268 458.813 268 462.713C268 466.612 271.16 469.773 275.06 469.773C278.731 469.773 281.749 466.97 282.088 463.385H346.274L358.299 475.41H429.618L447.67 457.358H461.909V469.765H444.959L429.497 485.227C428.661 484.364 427.491 483.826 426.192 483.826C423.647 483.826 421.584 485.889 421.584 488.433C421.584 490.977 423.647 493.04 426.192 493.04C428.736 493.04 430.799 490.977 430.799 488.433C430.799 487.677 430.613 486.964 430.29 486.335L445.516 471.109H461.909V481.771H454.58L433.389 502.962H400.278L386.776 489.46H354.875C354.391 485.66 351.14 482.709 347.207 482.709C342.944 482.709 339.475 486.179 339.475 490.442C339.475 494.705 342.944 498.174 347.207 498.174C351.47 498.174 354.738 494.901 354.929 490.805H386.217L399.718 504.307H433.946L455.137 483.116H461.906V491.418H453.636L435.312 509.742H391.042L387.793 506.493C388.156 505.834 388.366 505.078 388.366 504.272C388.366 501.727 386.303 499.664 383.758 499.664C381.214 499.664 379.151 501.727 379.151 504.272C379.151 506.816 381.214 508.879 383.758 508.879C385.009 508.879 386.139 508.379 386.97 507.572L390.485 511.087H435.871L454.195 492.763H461.909V505.474H456.583L439.677 522.38H374.633L328.448 568.565C327.246 567.619 325.734 567.054 324.085 567.054C320.185 567.054 317.025 570.214 317.025 574.114C317.025 578.014 320.185 581.174 324.085 581.174C327.985 581.174 331.145 578.014 331.145 574.114C331.145 572.347 330.494 570.733 329.421 569.493L375.19 523.725H440.234L457.14 506.819H461.909V515.694H455.29L437.722 533.262H414.107C413.782 531.038 411.87 529.328 409.554 529.328C407.01 529.328 404.947 531.39 404.947 533.935C404.947 536.479 407.01 538.542 409.554 538.542C411.87 538.542 413.779 536.831 414.107 534.607H438.278L455.847 517.039H461.906V518.333C461.906 521.821 464.736 524.65 468.224 524.65H469.574V530.769L452.006 548.337V572.508C449.782 572.834 448.071 574.746 448.071 577.062C448.071 579.606 450.134 581.669 452.678 581.669C455.223 581.669 457.285 579.606 457.285 577.062C457.285 574.746 455.575 572.836 453.351 572.508V548.894L470.919 531.326V524.65H479.794V529.475L462.888 546.382V611.426L417.12 657.194C415.882 656.121 414.266 655.47 412.499 655.47C408.599 655.47 405.439 658.631 405.439 662.53C405.439 666.43 408.599 669.59 412.499 669.59C416.399 669.59 419.559 666.43 419.559 662.53C419.559 660.884 418.994 659.37 418.048 658.168L464.233 611.983V546.939L481.139 530.032V524.65H493.85V532.423L475.526 550.747V596.133L479.041 599.649C478.234 600.48 477.734 601.609 477.734 602.86C477.734 605.404 479.797 607.467 482.341 607.467C484.886 607.467 486.949 605.404 486.949 602.86C486.949 600.316 484.886 598.253 482.341 598.253C481.534 598.253 480.779 598.46 480.12 598.826L476.871 595.577V551.307L495.195 532.983V524.653H503.497V531.482L482.306 552.673V586.897L495.808 600.399V631.687C491.712 631.878 488.439 635.266 488.439 639.408C488.439 643.55 491.908 647.141 496.171 647.141C500.434 647.141 503.904 643.671 503.904 639.408C503.904 635.479 500.956 632.225 497.153 631.74V599.84L483.651 586.338V553.227L504.842 532.036V524.65H515.504V541.102L500.278 556.328C499.649 556.005 498.936 555.82 498.18 555.82C495.636 555.82 493.573 557.883 493.573 560.427C493.573 562.971 495.636 565.034 498.18 565.034C500.724 565.034 502.787 562.971 502.787 560.427C502.787 559.13 502.249 557.958 501.386 557.121L516.848 541.659V524.65H529.255V538.948L511.2 557V628.319L523.225 640.344V704.53C519.643 704.869 516.838 707.884 516.838 711.558C516.838 715.458 519.998 718.618 523.898 718.618C527.798 718.618 530.958 715.458 530.958 711.558C530.958 707.887 528.155 704.869 524.57 704.53V639.788L512.545 627.763V557.557L530.6 539.505V524.65H540.081V546.888L523.225 563.743V590.961C521.001 591.287 519.29 593.199 519.29 595.515C519.29 598.059 521.353 600.122 523.898 600.122C526.442 600.122 528.505 598.059 528.505 595.515C528.505 593.199 526.794 591.289 524.57 590.961V564.3L541.425 547.444V524.65H550.557V558.084L537.682 570.959V654.83C533.733 655.172 530.622 658.493 530.622 662.53C530.622 666.793 534.091 670.263 538.354 670.263C542.617 670.263 546.086 666.793 546.086 662.53C546.086 658.493 542.977 655.172 539.026 654.83V571.519L551.901 558.644V524.653H561.447V546.791L574.383 559.728V584.802L564.155 595.031V617.679C561.619 618.207 559.706 620.458 559.706 623.147C559.706 626.227 562.213 628.733 565.293 628.733C568.372 628.733 570.879 626.227 570.879 623.147C570.879 620.068 568.485 617.682 565.5 617.572V595.587L575.728 585.359V559.171L562.791 546.234V524.653H577.57V543.302L593.995 559.728V598.473L628.489 632.967C627.279 634.234 626.534 635.95 626.534 637.843C626.534 641.743 629.694 644.903 633.594 644.903C637.494 644.903 640.654 641.743 640.654 637.843C640.654 633.943 637.494 630.783 633.594 630.783C632.072 630.783 630.665 631.267 629.511 632.085L595.343 597.917V559.171L578.918 542.746V524.653H580.268C583.756 524.653 586.586 521.824 586.586 518.335V517.042H592.648L610.216 534.61H634.387C634.713 536.834 636.625 538.545 638.941 538.545C641.485 538.545 643.548 536.482 643.548 533.937C643.548 531.393 641.485 529.33 638.941 529.33C636.625 529.33 634.715 531.041 634.387 533.265H610.773L593.205 515.697H586.586V506.821H591.354L608.261 523.728H673.305L719.073 569.496C718 570.733 717.349 572.35 717.349 574.117C717.349 578.017 720.509 581.177 724.409 581.177C728.309 581.177 731.469 578.017 731.469 574.117C731.469 570.217 728.309 567.057 724.409 567.057C722.763 567.057 721.249 567.621 720.047 568.568L673.862 522.383H608.818L591.911 505.477H586.586V492.766H594.299L612.623 511.09H658.01L661.525 507.574C662.356 508.381 663.486 508.882 664.736 508.882C667.28 508.882 669.343 506.819 669.343 504.274C669.343 501.73 667.28 499.667 664.736 499.667C662.192 499.667 660.129 501.73 660.129 504.274C660.129 505.081 660.336 505.837 660.702 506.496L657.453 509.745H613.183L594.859 491.421H586.589V483.118H593.361L614.552 504.309H648.776L662.278 490.808H693.568C693.759 494.904 697.148 498.177 701.29 498.177C705.432 498.177 709.022 494.708 709.022 490.445C709.022 486.182 705.553 482.712 701.29 482.712C697.36 482.712 694.106 485.66 693.622 489.463H661.721L648.22 502.965H615.108L593.918 481.773H586.589V471.112H602.981L618.207 486.338C617.884 486.967 617.699 487.68 617.699 488.436C617.699 490.98 619.761 493.043 622.306 493.043C624.85 493.043 626.913 490.98 626.913 488.436C626.913 485.891 624.85 483.828 622.306 483.828C621.009 483.828 619.837 484.366 619 485.23L603.538 469.767H586.589V457.36H600.83L618.882 475.413H690.201L702.226 463.388H766.412C766.751 466.97 769.766 469.775 773.44 469.775C777.34 469.775 780.5 466.615 780.5 462.715C780.5 458.815 777.34 455.655 773.44 455.655H773.445ZM724.417 441.874C727.938 441.874 730.805 444.738 730.805 448.262C730.805 451.785 727.941 454.649 724.417 454.649C720.894 454.649 718.03 451.785 718.03 448.262C718.03 444.738 720.894 441.874 724.417 441.874ZM685.029 417.082C687.366 417.082 689.27 418.983 689.27 421.323C689.27 423.663 687.369 425.564 685.029 425.564C682.689 425.564 680.787 423.663 680.787 421.323C680.787 418.983 682.689 417.082 685.029 417.082ZM561.059 301.477C561.059 299.139 562.961 297.235 565.301 297.235C567.641 297.235 569.542 299.137 569.542 301.477C569.542 303.816 567.641 305.718 565.301 305.718C562.961 305.718 561.059 303.816 561.059 301.477ZM531.974 262.088C531.974 258.567 534.839 255.7 538.362 255.7C541.885 255.7 544.75 258.565 544.75 262.088C544.75 265.611 541.885 268.476 538.362 268.476C534.839 268.476 531.974 265.611 531.974 262.088ZM489.789 285.21C489.789 281.689 492.653 278.822 496.176 278.822C499.7 278.822 502.564 281.687 502.564 285.21C502.564 288.733 499.7 291.598 496.176 291.598C492.653 291.598 489.789 288.733 489.789 285.21ZM363.476 425.562C361.139 425.562 359.235 423.66 359.235 421.32C359.235 418.98 361.137 417.079 363.476 417.079C365.816 417.079 367.718 418.98 367.718 421.32C367.718 423.66 365.816 425.562 363.476 425.562ZM324.088 454.647C320.567 454.647 317.7 451.782 317.7 448.259C317.7 444.736 320.565 441.871 324.088 441.871C327.611 441.871 330.476 444.736 330.476 448.259C330.476 451.782 327.611 454.647 324.088 454.647ZM347.21 496.832C343.689 496.832 340.822 493.968 340.822 490.445C340.822 486.921 343.687 484.057 347.21 484.057C350.733 484.057 353.598 486.921 353.598 490.445C353.598 493.968 350.733 496.832 347.21 496.832ZM502.561 639.411C502.561 642.932 499.697 645.799 496.174 645.799C492.65 645.799 489.786 642.934 489.786 639.411C489.786 635.888 492.65 633.023 496.174 633.023C499.697 633.023 502.561 635.888 502.561 639.411ZM544.747 662.533C544.747 666.054 541.883 668.921 538.359 668.921C534.836 668.921 531.972 666.056 531.972 662.533C531.972 659.01 534.836 656.145 538.359 656.145C541.883 656.145 544.747 659.01 544.747 662.533ZM569.539 623.145C569.539 625.482 567.638 627.386 565.298 627.386C562.958 627.386 561.057 625.484 561.057 623.145C561.057 620.805 562.958 618.903 565.298 618.903C567.638 618.903 569.539 620.805 569.539 623.145ZM701.293 484.057C704.813 484.057 707.68 486.921 707.68 490.445C707.68 493.968 704.816 496.832 701.293 496.832C697.769 496.832 694.905 493.968 694.905 490.445C694.905 486.921 697.769 484.057 701.293 484.057Z" fill="url(#paint0_linear_35_4)"/>
<path d="M570.693 514.032H477.809C474.899 514.032 472.53 511.665 472.53 508.752V415.868C472.53 412.958 474.897 410.589 477.809 410.589H570.693C573.603 410.589 575.973 412.956 575.973 415.868V508.752C575.973 511.662 573.606 514.032 570.693 514.032ZM477.809 413.281C476.381 413.281 475.219 414.443 475.219 415.871V508.755C475.219 510.183 476.381 511.345 477.809 511.345H570.693C572.121 511.345 573.283 510.183 573.283 508.755V415.871C573.283 414.443 572.121 413.281 570.693 413.281H477.809Z" fill="white"/>
<path d="M486.085 424.495H479.905C479.711 424.495 479.552 424.336 479.552 424.142V417.962C479.552 417.768 479.711 417.609 479.905 417.609H486.085C486.279 417.609 486.438 417.768 486.438 417.962V424.142C486.438 424.336 486.279 424.495 486.085 424.495ZM479.905 417.79C479.811 417.79 479.733 417.868 479.733 417.962V424.142C479.733 424.236 479.811 424.314 479.905 424.314H486.085C486.179 424.314 486.257 424.236 486.257 424.142V417.962C486.257 417.868 486.179 417.79 486.085 417.79H479.905Z" fill="white"/>
<path d="M486.085 425.032H479.905C479.415 425.032 479.014 424.634 479.014 424.142V417.962C479.014 417.472 479.412 417.071 479.905 417.071H486.085C486.575 417.071 486.975 417.469 486.975 417.962V424.142C486.975 424.632 486.577 425.032 486.085 425.032ZM480.27 423.776H485.722V418.325H480.27V423.776Z" fill="white"/>
<path d="M568.603 506.994H562.423C562.229 506.994 562.07 506.835 562.07 506.641V500.461C562.07 500.267 562.229 500.108 562.423 500.108H568.603C568.797 500.108 568.956 500.267 568.956 500.461V506.641C568.956 506.835 568.797 506.994 568.603 506.994ZM562.423 500.289C562.329 500.289 562.251 500.367 562.251 500.461V506.641C562.251 506.735 562.329 506.813 562.423 506.813H568.603C568.697 506.813 568.775 506.735 568.775 506.641V500.461C568.775 500.367 568.697 500.289 568.603 500.289H562.423Z" fill="white"/>
<path d="M568.603 507.531H562.423C561.933 507.531 561.532 507.133 561.532 506.641V500.461C561.532 499.971 561.931 499.57 562.423 499.57H568.603C569.093 499.57 569.494 499.968 569.494 500.461V506.641C569.494 507.131 569.096 507.531 568.603 507.531ZM562.789 506.275H568.24V500.824H562.789V506.275Z" fill="white"/>
<path d="M268 356H138.5L125 342.5V288.5" stroke="white"/>
<circle cx="125" cy="285" r="4" fill="white"/>
<path d="M268 544H138.5L125 557.5V611.5" stroke="white"/>
<circle cx="4" cy="4" r="4" transform="matrix(1 0 0 -1 121 619)" fill="white"/>
<path d="M780 356H909.5L923 342.5V288.5" stroke="white"/>
<circle cx="4" cy="4" r="4" transform="matrix(-1 0 0 1 927 281)" fill="white"/>
<path d="M780 544H909.5L923 557.5V611.5" stroke="white"/>
<circle cx="923" cy="615" r="4" transform="rotate(180 923 615)" fill="white"/>
<defs>
<filter id="filter0_f_35_4" x="62" y="0" width="925" height="925" filterUnits="userSpaceOnUse" color-interpolation-filters="sRGB">
<feFlood flood-opacity="0" result="BackgroundImageFix"/>
<feBlend mode="normal" in="SourceGraphic" in2="BackgroundImageFix" result="shape"/>
<feGaussianBlur stdDeviation="150" result="effect1_foregroundBlur_35_4"/>
</filter>
<linearGradient id="paint0_linear_35_4" x1="317.5" y1="343.5" x2="836.5" y2="623.5" gradientUnits="userSpaceOnUse">
<stop stop-color="#5C5EF1"/>
<stop offset="1" stop-color="#4EF6D7"/>
</linearGradient>
</defs>
</svg>
